<svg width="500" height="300" viewBox="0 0 782 600" fill="none" xmlns="http://www.w3.org/2000/svg">
<path d="M1089.84 314.397C1128.3 337.599 1158.01 350.804 1186.19 357.211C1294.61 379.859 1436.95 294.618 1548.81 140.042C1604.14 62.3391 1639.4 -20.5571 1650.79 -99.6788C1660.25 -168.907 1652.23 -245.971 1625.53 -342.205C1606.78 -408.234 1577.97 -473.462 1534.84 -547.477C1490.9 -622.222 1448.85 -670.39 1398.49 -703.655C1396.19 -705.143 1393.87 -706.597 1391.39 -708.093C1332.62 -743.546 1226.81 -779.067 1108.35 -803.109C987.95 -827.547 877.226 -835.068 812.165 -823.227C657.05 -826.047 632.465 -752.078 595.242 -640.118C578.733 -590.454 560.016 -534.166 526.847 -472.516C502.9 -428.033 480.92 -388.671 461.525 -353.941C368.386 -187.164 325.872 -111.049 354.551 18.6564C362.093 49.2941 381.832 74.4322 413.206 93.3597C437.937 108.279 470.107 119.48 508.826 126.649C544.02 133.036 581.773 137.277 621.744 141.765C674.315 147.667 728.674 153.768 784.936 165.495C851.739 179.716 917.797 206.89 986.891 248.572C997.147 254.759 1007.78 261.453 1018.49 268.464C1023.3 271.617 1028.06 274.755 1032.79 277.861C1052.61 290.909 1071.33 303.232 1089.84 314.397ZM1391.94 -709.007C1394.43 -707.504 1396.77 -706.044 1399.09 -704.547C1449.63 -671.157 1491.81 -622.852 1535.87 -547.92C1579.05 -473.811 1607.9 -408.494 1626.68 -342.367C1653.41 -245.983 1661.45 -168.783 1651.97 -99.407C1640.56 -20.1245 1605.23 62.9143 1549.81 140.739C1437.72 295.646 1294.93 381.043 1186.05 358.296C1157.72 351.854 1127.88 338.597 1089.28 315.316C1070.75 304.136 1052.02 291.807 1032.18 278.75C1027.46 275.64 1022.7 272.505 1017.89 269.354C1007.19 262.353 996.579 255.669 986.337 249.491C917.378 207.889 851.459 180.77 784.806 166.578C728.613 154.87 674.288 148.771 621.742 142.871C581.75 138.383 543.978 134.142 508.737 127.743C469.851 120.543 437.525 109.283 412.652 94.2778C380.959 75.1583 361.023 49.7557 353.393 18.7679C339.447 -44.3023 341.658 -95.7923 360.795 -153.411C379.372 -209.357 413.384 -270.258 460.456 -354.548C479.849 -389.275 501.832 -428.634 525.77 -473.115C558.903 -534.684 577.604 -590.938 594.103 -640.565C613.315 -698.352 628.487 -744.001 658.746 -776.092C691.456 -810.795 738.699 -825.67 811.932 -824.331C877.012 -836.193 987.913 -828.668 1108.47 -804.202C1227.07 -780.124 1333.04 -744.537 1391.94 -709.007Z" fill="#EDE9F7"/>
<path d="M1386.01 -697.633C1384.63 -698.5 1383.25 -699.343 1381.83 -700.202C1325.67 -734.081 1223.58 -768.047 1108.74 -791.043C991.871 -814.457 884.056 -821.595 820.328 -810.141C669.483 -812.61 644.154 -741.244 605.819 -633.216C589.239 -586.504 570.447 -533.558 538.428 -475.687C515.205 -433.431 493.832 -395.942 474.979 -362.866C383.514 -202.414 341.769 -129.181 368.311 -3.70792C375.539 28.9579 396.344 55.8629 430.164 76.2652C452.845 89.9474 481.523 100.776 515.4 108.446C556.301 119.363 601.227 127.145 648.79 135.382C693.481 143.12 739.7 151.126 787.287 162.479C885.713 186.611 967.799 231.299 1020.98 262.814L1030.25 268.556C1041.5 275.525 1052.13 282.109 1062.78 288.535C1108.09 315.867 1146.4 335.663 1186.12 343.433C1291.34 363.534 1429.96 281.276 1539.25 133.872C1595.66 58.7403 1632.09 -21.1945 1644.6 -97.2858C1655.41 -164.92 1648.59 -240.302 1623.12 -334.516C1604.67 -403.361 1574.66 -470.417 1528.66 -545.536C1483.64 -618.369 1439.83 -665.169 1386.59 -697.282L1386.01 -697.633ZM1382.38 -701.122C1383.81 -700.26 1385.2 -699.412 1386.57 -698.542L1387.14 -698.2C1440.58 -665.966 1484.54 -619.026 1529.67 -546.001C1575.73 -470.779 1605.79 -403.624 1624.27 -334.669C1649.78 -240.303 1656.61 -164.778 1645.78 -96.992C1633.24 -20.7482 1596.75 59.3281 1540.25 134.581C1430.72 282.303 1291.68 364.711 1186.01 344.527C1146.1 336.714 1107.66 316.863 1062.22 289.455C1051.56 283.025 1040.93 276.437 1029.68 269.465L1020.42 263.733C967.328 232.271 885.366 187.646 787.125 163.556C739.58 152.217 693.384 144.214 648.709 136.475C601.119 128.236 556.165 120.45 515.237 109.525C481.236 101.826 452.422 90.9425 429.611 77.1816C395.471 56.5862 374.45 29.4028 367.155 -3.61142C340.522 -129.474 382.325 -202.807 473.915 -363.48C492.767 -396.555 514.136 -434.038 537.361 -476.293C569.344 -534.094 588.12 -587.004 604.685 -633.679C624.472 -689.438 640.101 -733.478 670.149 -764.48C702.63 -797.995 748.879 -812.417 820.091 -811.248C883.844 -822.717 991.842 -815.574 1108.85 -792.136C1223.84 -769.108 1326.09 -735.081 1382.38 -701.122Z" fill="#EDE9F7"/>
<path d="M447.459 59.3674C467.896 71.6957 492.959 81.9405 521.945 89.8198C569.501 106.815 623.254 119.265 680.164 132.445C715.683 140.673 752.41 149.179 789.932 159.3C882.03 184.944 959.988 223.199 1024.1 257.24L1027.78 259.368C1085.05 292.597 1134.52 321.294 1186.93 329.893C1289.1 347.556 1424.05 268.423 1530.73 128.286C1589.04 54.7568 1625.58 -20.0913 1639.34 -94.1938C1651.29 -159.289 1645.41 -235.157 1621.37 -326.138C1603.41 -396.843 1571.18 -467.774 1522.84 -542.988C1476.76 -614 1429.77 -660.626 1373.57 -691.154L1372.35 -691.895C1318.71 -724.252 1220.2 -756.743 1108.85 -778.811C995.367 -801.298 890.325 -808.155 827.851 -797.158C681.085 -799.424 655.03 -730.675 615.592 -626.609C599.016 -582.874 580.226 -533.306 549.423 -479.246C526.967 -439.296 506.251 -403.748 487.977 -372.383C398.187 -218.278 357.205 -147.946 381.782 -26.6313C388.662 8.29188 410.759 37.2279 447.459 59.3674ZM1386.9 -684.75C1437.65 -654.137 1481.16 -609.245 1523.84 -543.481C1572.25 -468.149 1604.53 -397.102 1622.52 -326.282C1646.61 -235.145 1652.49 -159.125 1640.51 -93.878C1626.73 -19.6222 1590.12 55.3701 1531.72 129.009C1479.1 198.133 1418.91 253.63 1357.67 289.502C1296.42 325.375 1237.35 339.722 1186.86 330.989C1134.2 322.351 1084.64 293.594 1027.24 260.298L1023.59 258.182C959.57 224.192 881.693 185.974 789.727 160.368C752.241 150.259 715.52 141.752 680.01 133.529C623.063 120.337 569.269 107.879 521.695 90.8729C492.629 82.9747 467.454 72.6818 446.905 60.2854C409.862 37.9395 387.56 8.72275 380.613 -26.5561C355.962 -148.247 397.002 -218.68 486.922 -373C505.193 -404.365 525.908 -439.911 548.358 -479.859C579.128 -533.855 597.906 -583.387 614.461 -627.091C634.821 -680.803 650.897 -723.222 680.755 -753.101C713.031 -785.411 758.325 -799.336 827.615 -798.264C890.112 -809.277 995.33 -802.416 1108.96 -779.898C1220.46 -757.806 1319.14 -725.248 1372.91 -692.813L1374.11 -692.087C1378.39 -689.758 1382.7 -687.284 1386.9 -684.75Z" fill="#EDE9F7"/>
<path d="M466.118 43.2954C483.961 54.0591 505.157 63.4109 529.105 71.0837C584.308 96.0591 648.894 114.423 717.274 133.867C741.79 140.835 767.141 148.043 792.756 155.753C885.642 184.673 967.334 223.038 1026.98 251.047C1081.72 280.6 1133.38 308.5 1187.19 315.562C1235.94 323.025 1292.98 308.849 1352.16 274.569C1411.47 240.217 1469.96 187.382 1521.32 121.773C1580.74 50.9331 1618.38 -20.982 1633.19 -91.976C1646.49 -155.401 1641.83 -229.493 1618.96 -318.485C1601.32 -391.932 1567.86 -464.697 1516.66 -540.942C1476.22 -600.603 1434.93 -641.931 1386.72 -671.008C1378.46 -675.993 1369.85 -680.69 1361.13 -684.963C1309.37 -715.571 1214.67 -746.206 1107.73 -766.944C996.867 -788.441 897.918 -794.648 836.246 -783.965C693.729 -785.905 666.891 -719.791 626.267 -619.716C609.731 -578.979 590.988 -532.805 561.434 -482.571C539.797 -445.001 519.772 -411.445 502.109 -381.835C413.924 -234.033 373.674 -166.576 396.16 -49.4797C402.581 -12.0428 426.122 19.1688 466.118 43.2954ZM1387.28 -671.927C1435.66 -642.743 1477.08 -601.285 1517.65 -541.459C1568.93 -465.083 1602.45 -392.192 1620.11 -318.612C1643.02 -229.466 1647.68 -155.219 1634.36 -91.6394C1619.51 -20.4886 1581.8 51.5634 1522.3 122.51C1470.87 188.204 1412.28 241.124 1352.87 275.537C1293.46 309.945 1236.16 324.166 1187.16 316.664C1133.11 309.573 1081.34 281.614 1026.52 252.015C966.945 224.039 885.301 185.703 792.512 156.809C766.918 149.106 741.57 141.901 717.055 134.93C648.629 115.474 583.992 97.0927 528.775 72.109C504.794 64.4274 483.502 55.0338 465.564 44.2129C425.222 19.8776 401.475 -11.6258 394.987 -49.4212C372.438 -166.887 412.742 -234.446 501.055 -382.466C518.721 -412.071 538.74 -445.622 560.379 -483.189C589.896 -533.372 608.624 -579.509 625.151 -620.216C646.12 -671.862 662.677 -712.662 692.343 -741.429C724.415 -772.533 768.727 -785.992 836.007 -785.07C897.71 -795.769 996.83 -789.559 1107.84 -768.035C1214.91 -747.269 1309.79 -716.565 1361.63 -685.913C1370.33 -681.645 1378.98 -676.934 1387.28 -671.927Z" fill="#EDE9F7"/>
<path d="M484.445 29.1228C499.331 38.1026 516.422 46.2193 535.258 53.2564C599.524 88.7768 677.847 114.585 760.755 141.899C772.015 145.608 783.372 149.348 794.821 153.157C864.177 177.047 926.755 203.177 981.965 226.231C998.573 233.168 1014.26 239.716 1029.33 245.874C1087.38 274.796 1135.82 297.305 1187.1 302.307C1234.42 308.546 1289.78 294.461 1347.19 261.582C1404.74 228.621 1461.72 178.281 1511.96 115.997C1572.57 47.7437 1611.37 -21.3339 1627.26 -89.3373C1641.92 -151.149 1638.49 -223.56 1616.77 -310.702C1599.73 -385.937 1564.03 -462.753 1510.67 -539.039C1472.36 -593.301 1433.24 -631.405 1387.57 -658.95C1375.22 -666.4 1362.15 -673.163 1348.74 -679.063C1298.37 -707.808 1207.38 -736.428 1105.27 -755.649C999.073 -775.64 903.888 -781.27 844.128 -771.088C705.66 -772.668 677.948 -709.087 636.009 -612.838C619.543 -575.047 600.879 -532.218 572.585 -485.74C551.777 -450.566 532.464 -419.004 515.417 -391.162C428.626 -249.359 389.017 -184.641 409.396 -71.5607C415.286 -31.2335 440.532 2.63392 484.445 29.1228ZM1388.13 -659.87C1433.97 -632.221 1473.21 -593.997 1511.64 -539.57C1565.09 -463.155 1600.85 -386.188 1617.93 -310.819C1639.69 -223.521 1643.12 -150.953 1628.42 -88.9755C1612.49 -20.8216 1573.63 48.3968 1512.92 116.751C1462.62 179.11 1405.55 229.533 1347.89 262.55C1290.26 295.554 1234.66 309.685 1187.09 303.411C1135.61 298.391 1087.05 275.833 1028.92 246.867C1013.9 240.73 998.207 234.181 981.594 227.243C926.404 204.196 863.846 178.076 794.538 154.202C783.101 150.399 771.743 146.656 760.489 142.948C677.513 115.611 599.133 89.7857 534.841 54.2415C516.025 47.2246 498.848 39.0639 483.89 30.0411C439.622 3.33767 414.167 -30.8313 408.223 -71.5203C387.773 -184.965 427.449 -249.78 514.376 -391.796C531.414 -419.64 550.732 -451.193 571.534 -486.369C599.794 -532.802 618.45 -575.599 634.897 -613.36C656.547 -663.034 673.646 -702.267 703.188 -729.973C735.128 -759.925 778.52 -772.953 843.893 -772.194C903.688 -782.39 999.024 -776.76 1105.37 -756.741C1207.62 -737.492 1298.77 -708.816 1349.2 -680.032C1362.61 -674.145 1375.73 -667.35 1388.13 -659.87Z" fill="#EDE9F7"/>
<path d="M560.538 45.7416C626.688 85.643 706.974 116.246 797.465 149.296C834.27 163.225 868.915 176.897 902.417 190.119C949.361 208.647 993.705 226.145 1032.42 239.632C1086.31 264.161 1135.16 284.722 1187.83 288.111C1233.76 293.181 1287.41 279.279 1343.02 247.907C1398.79 216.454 1454.19 168.739 1503.24 109.921C1565.01 44.4353 1604.87 -21.6794 1621.73 -86.6023C1637.7 -146.685 1635.4 -217.329 1614.72 -302.566C1597.92 -380.547 1560.83 -459.296 1504.49 -536.649C1468.71 -585.306 1430.67 -621.414 1388.2 -647.029C1371.85 -656.891 1354.27 -665.534 1335.95 -672.72C1236.68 -727.203 979.015 -779.459 851.426 -758.296C716.923 -759.689 688.362 -698.732 645.125 -606.461C628.843 -571.699 610.383 -532.302 583.463 -489.686C563.595 -457.046 545.066 -427.611 528.726 -401.639C443.383 -266.029 404.428 -204.138 422.877 -95.1218C428.158 -51.56 455.479 -14.6221 504.069 14.6869C515.52 21.5943 528.222 28.0747 541.818 33.9538C547.888 37.9414 554.151 41.8894 560.538 45.7416ZM1388.76 -647.948C1431.38 -622.237 1469.55 -586.009 1505.44 -537.199C1561.89 -459.705 1599.05 -380.799 1615.88 -302.673C1636.61 -217.273 1638.9 -146.467 1622.88 -86.2185C1605.99 -21.1362 1566.05 45.1134 1504.19 110.693C1455.08 169.577 1399.59 217.369 1343.72 248.883C1287.91 280.367 1234.01 294.316 1187.87 289.221C1134.99 285.819 1086.02 265.21 1032.06 240.649C993.384 227.176 949.029 209.67 902.073 191.141C868.57 177.919 833.934 164.251 797.147 150.328C706.595 117.253 626.242 86.6228 559.985 46.6569C553.585 42.7964 547.305 38.8388 541.324 34.8966C527.776 29.0544 515.018 22.5406 503.516 15.6023C454.554 -13.931 427.027 -51.1743 421.697 -95.1025C412.763 -147.905 417.102 -191.128 436.215 -239.608C454.503 -286.007 485.195 -334.783 527.68 -402.289C544.023 -428.257 562.546 -457.692 582.42 -490.328C609.305 -532.904 627.753 -572.272 644.032 -607.01C666.348 -654.629 683.967 -692.245 713.383 -718.815C745.194 -747.547 787.69 -760.062 851.188 -759.402C909.066 -769.007 1000.65 -763.844 1102.38 -745.214C1199.82 -727.375 1287.29 -700.64 1336.37 -673.706C1354.69 -666.527 1372.34 -657.852 1388.76 -647.948Z" fill="#EDE9F7"/>
<path d="M605.52 54.8538C667.599 92.2986 738.62 122.27 799.905 146.649C881.48 180.258 966.822 214.714 1034.99 234.35C1093.24 258.211 1139.09 273.274 1187.88 274.704C1278.93 282.569 1396.16 217.188 1493.84 104.08C1556.84 41.2438 1597.83 -22.0017 1615.69 -83.9255C1633.06 -142.323 1631.99 -211.24 1612.45 -294.635C1596.27 -374.257 1556.86 -457.186 1498.49 -534.468C1464.74 -578.746 1428.97 -611.948 1389.15 -635.968C1368.72 -648.289 1347.3 -658.263 1323.65 -666.46C1276.02 -691.48 1192.47 -716.122 1100.06 -732.42C1003.2 -749.502 915.585 -754.084 859.688 -744.992C729.181 -746.015 699.639 -687.589 654.915 -599.149C638.858 -567.381 620.655 -531.379 595.151 -492.573C576.255 -462.503 558.555 -435.212 542.931 -411.14C461.347 -285.34 420.394 -222.198 436.742 -117.125C441.17 -70.5044 471.69 -28.8817 524.994 3.27042C532.389 7.73107 540.295 12.057 548.508 16.1316C565.681 29.3665 584.823 42.3694 605.52 54.8538ZM1389.7 -636.885C1429.68 -612.772 1465.57 -579.46 1499.43 -535.041C1557.91 -457.607 1597.4 -374.507 1613.61 -294.731C1633.2 -211.173 1634.25 -142.074 1616.84 -83.5197C1598.93 -21.4372 1557.87 41.9433 1494.77 104.869C1396.9 218.196 1279.32 283.708 1187.95 275.817C1133.7 274.228 1082.5 254.973 1034.7 235.387C966.534 215.754 881.153 181.285 799.545 147.665C738.217 123.268 667.135 93.2712 604.966 55.7715C584.229 43.2633 565.039 30.2254 547.941 17.0306C539.809 13.0132 531.87 8.67221 524.439 4.1901C470.756 -28.1909 440.023 -70.1411 435.562 -117.127C419.163 -222.548 460.182 -285.795 541.903 -411.795C557.518 -435.87 575.214 -463.158 594.112 -493.232C619.592 -531.993 637.784 -567.975 653.835 -599.717C676.916 -645.365 695.144 -681.418 724.489 -706.927C756.215 -734.506 797.84 -746.583 859.459 -746.099C915.38 -755.206 1003.15 -750.622 1100.14 -733.515C1192.68 -717.193 1276.38 -692.505 1324.04 -667.461C1347.68 -659.273 1369.19 -649.258 1389.7 -636.885Z" fill="#EDE9F7"/>
<path d="M651.993 68.172C693.729 93.3461 742.943 118.053 802.446 143.699C899.595 187.028 976.594 214.884 1037.85 228.865C1091.97 248.478 1138.22 261.462 1188.32 261.149C1276.27 266.515 1389.92 204.06 1484.96 98.1539C1549.24 37.9909 1591.36 -22.3905 1610.18 -81.344C1628.93 -138.028 1629.08 -205.251 1610.64 -286.849C1590.64 -390.947 1535.52 -477.914 1492.8 -532.54C1460.93 -572.925 1427.31 -603.495 1390.02 -625.991C1365.96 -640.5 1340.28 -651.799 1311.51 -660.534C1217.3 -707.669 985.276 -750.861 867.803 -732.201C741.111 -732.89 710.506 -676.963 664.184 -592.309C648.451 -563.558 630.62 -530.971 606.613 -495.998C588.781 -468.592 571.984 -443.53 557.161 -421.42C476.577 -301.214 436.13 -240.876 450.424 -139.634C453.928 -88.7603 487.379 -42.8268 547.169 -6.76309C549.764 -5.19788 552.445 -3.63215 555.136 -2.10602C582.907 22.6276 614.553 45.5893 651.993 68.172ZM1390.57 -626.909C1428.02 -604.324 1461.76 -573.649 1493.73 -533.128C1536.53 -478.39 1591.76 -391.247 1611.8 -286.935C1630.28 -205.165 1630.13 -137.769 1611.32 -80.9082C1592.45 -21.8037 1550.24 38.7189 1485.88 98.961C1390.66 205.064 1276.67 267.65 1188.43 262.263C1138.18 262.578 1091.8 249.562 1037.62 229.924C976.357 215.946 899.276 188.061 802.059 144.702C742.503 119.032 693.232 94.2989 651.438 69.0901C613.921 46.461 582.211 23.4496 554.491 -1.25618C551.914 -2.69972 549.221 -4.27258 546.615 -5.84495C486.441 -42.14 452.769 -88.4122 449.247 -139.653C434.9 -241.243 475.414 -301.681 556.132 -422.091C570.95 -444.199 587.75 -469.252 605.591 -496.663C629.572 -531.612 647.392 -564.175 663.114 -592.908C709.608 -677.874 740.33 -734.006 867.57 -733.306C985.155 -751.995 1217.59 -708.727 1311.87 -661.551C1340.63 -652.821 1366.42 -641.478 1390.57 -626.909Z" fill="#EDE9F7"/>
<path d="M696.865 82.6352C729.592 102.375 765.053 121.064 805.258 139.764C896.605 183.66 975.963 211.523 1041.14 222.579C1085.76 236.573 1134.52 249.191 1189.26 246.929C1274.16 249.897 1384.2 190.538 1476.49 92.0146C1542.97 33.8561 1584.97 -21.9668 1604.93 -78.6871C1625.04 -133.575 1626.32 -199.035 1608.86 -278.816C1593.53 -362.726 1550.2 -452.025 1486.84 -530.279C1456.7 -567.209 1425.05 -595.406 1390.1 -616.484C1362.64 -633.048 1332.82 -645.441 1298.92 -654.376C1207.33 -697.768 989.581 -737.134 875.256 -719.578C752.235 -720.063 720.514 -666.689 672.495 -585.889C657.244 -560.226 639.954 -531.135 617.594 -500.075C600.945 -475.473 585.172 -452.775 571.245 -432.751C491.584 -318.203 451.601 -260.704 463.956 -163.258C466.859 -96.351 518.754 -49.2327 561.775 -21.475L561.896 -21.3773C598.608 15.9761 642.758 50.0004 696.865 82.6352ZM1390.66 -617.4C1425.74 -596.237 1457.51 -567.94 1487.76 -530.889C1551.24 -452.466 1594.66 -362.977 1610.03 -278.894C1627.53 -198.928 1626.23 -133.289 1606.07 -78.224C1586.04 -21.3549 1543.95 34.606 1477.39 92.8371C1384.94 191.537 1274.57 251.019 1189.41 248.045C1134.52 250.311 1085.63 237.663 1040.97 223.654C975.762 212.597 896.283 184.699 804.832 140.75C764.587 122.032 729.091 103.321 696.312 83.5505C642.126 50.8679 597.905 16.7923 561.12 -20.6238C517.849 -48.5516 465.695 -95.9661 462.768 -163.303C450.374 -261.086 490.428 -318.685 570.224 -433.437C584.145 -453.457 599.928 -476.148 616.571 -500.759C638.925 -531.799 656.198 -560.868 671.439 -586.521C719.638 -667.608 751.474 -721.181 875.027 -720.687C989.46 -738.262 1207.6 -698.826 1299.23 -655.405C1333.13 -646.478 1363.08 -634.031 1390.66 -617.4Z" fill="#EDE9F7"/>
<path d="M736.475 98.1209C758.832 111.605 782.816 124.754 807.765 137.211C895.339 182.314 976.991 210.051 1043.9 217.436C1100.93 232.361 1144.47 237.209 1189.58 233.666C1229.86 233.89 1276.72 220.472 1325.15 194.856C1373.88 169.086 1423.1 131.532 1467.5 86.254C1535.36 30.8147 1578.47 -22.2509 1599.35 -76.0194C1620.88 -129.166 1623.4 -192.941 1607.04 -270.988C1592.11 -357.667 1547.44 -449.05 1481.25 -528.329C1452.75 -562.187 1422.99 -588.242 1390.27 -607.978C1359.67 -626.431 1325.87 -639.651 1286.93 -648.396C1197.11 -688.354 993.446 -723.035 883.602 -706.602C764.151 -706.695 731.112 -655.725 681.102 -578.568C666.457 -555.979 649.862 -530.37 629.255 -503.19C613.907 -481.461 599.87 -462.07 586.298 -443.325C507.196 -334.05 467.491 -279.203 477.748 -185.342C478.84 -118.749 527.674 -69.1634 568.442 -39.2862L568.559 -39.1805C612.007 10.928 668.502 57.1227 736.475 98.1209ZM1390.82 -608.896C1423.68 -589.08 1453.55 -562.929 1482.15 -528.952C1548.48 -449.506 1593.25 -357.917 1608.21 -271.057C1624.6 -192.819 1622.08 -128.854 1600.48 -75.5265C1579.54 -21.6072 1536.33 31.589 1468.38 87.0978C1423.95 132.41 1374.64 170.026 1325.82 195.841C1277.23 221.543 1230.18 235.005 1189.77 234.778C1144.56 238.332 1100.89 233.473 1043.81 218.526C976.829 211.141 895.014 183.352 807.299 138.179C782.33 125.711 758.31 112.54 735.922 99.037C667.852 57.9803 611.261 11.7117 567.719 -38.4829C526.727 -68.5386 477.662 -118.412 476.567 -185.406C466.269 -279.602 506.046 -334.553 585.289 -444.023C598.862 -462.77 612.895 -482.152 628.252 -503.892C648.847 -531.058 665.433 -556.65 680.068 -579.233C730.254 -656.658 763.411 -707.811 883.37 -707.71C933.543 -715.223 1010.01 -712.232 1093.05 -699.503C1171.04 -687.549 1243.62 -668.831 1287.2 -649.434C1326.16 -640.703 1360.1 -627.427 1390.82 -608.896Z" fill="#EDE9F7"/>
<path d="M769.054 110.416C782.301 118.406 796.094 126.234 810.049 133.69C896.044 180.972 977.804 207.85 1046.51 211.428C1099.5 222.441 1143.65 224.965 1189.76 219.621C1269.75 217.602 1370.11 165.416 1458.27 80.0117C1527.51 27.4066 1571.7 -22.8331 1593.42 -73.6195C1616.35 -124.955 1620.04 -186.993 1604.73 -263.286C1590.15 -352.686 1544.07 -446.124 1474.98 -526.413C1447.98 -557.545 1419.93 -581.675 1389.24 -600.188C1355.72 -620.406 1318.08 -634.245 1274.18 -642.496C1188.06 -678.152 994.484 -708.873 891.14 -693.948C775.054 -693.718 740.551 -645.15 688.344 -571.632C674.536 -552.195 658.892 -530.159 640.243 -506.95C626.383 -488.248 613.583 -471.35 601.204 -455.01C524.914 -354.27 482.888 -298.778 491.105 -208.408C490.427 -142.214 536.226 -90.1442 574.771 -58.1119C623.912 5.61304 689.243 62.2784 769.054 110.416ZM1389.8 -601.107C1420.61 -582.52 1448.77 -558.294 1475.86 -527.051C1545.11 -446.588 1591.29 -352.939 1605.9 -263.346C1621.26 -186.854 1617.54 -124.615 1594.52 -73.0976C1572.75 -22.1655 1528.46 28.2032 1459.12 80.8761C1370.82 166.414 1270.19 218.713 1189.98 220.732C1143.79 226.09 1099.52 223.559 1046.48 212.531C977.684 208.957 895.72 182.018 809.555 134.642C795.579 127.175 781.76 119.332 768.499 111.334C688.54 63.1067 623.084 6.33098 573.937 -57.4245C535.289 -89.5272 489.234 -141.902 489.918 -208.498C481.671 -299.199 523.774 -354.795 600.208 -455.725C612.585 -472.066 625.381 -488.961 639.26 -507.672C657.897 -530.87 673.532 -552.892 687.329 -572.325C739.724 -646.095 774.339 -694.83 890.911 -695.058C939.868 -702.131 1010.68 -699.731 1090.22 -688.289C1163.31 -677.773 1232.17 -661.045 1274.41 -643.547C1318.34 -635.308 1356.13 -621.413 1389.8 -601.107Z" fill="#EDE9F7"/>
<path d="M795.93 120.324C801.601 123.745 807.404 127.145 813.173 130.431C897.986 180.037 979.8 206.038 1049.77 205.62C1098.55 213.002 1143.24 213.044 1190.5 205.765C1267.4 201.261 1364.18 152.008 1449.43 74.007C1521.03 23.591 1564.99 -22.4477 1587.79 -70.9133C1612.12 -120.384 1617.01 -180.65 1602.73 -255.164C1588.74 -345.902 1540.05 -443.845 1469.15 -523.904C1443.55 -552.589 1417.1 -574.981 1388.28 -592.363C1351.54 -614.522 1311.42 -628.36 1262.02 -635.916C1179.16 -667.466 999.084 -694.384 899.548 -680.543C786.612 -679.959 750.449 -633.729 695.705 -563.747C683.03 -547.55 668.668 -529.193 652.261 -510.039C640.108 -494.528 628.768 -480.29 617.795 -466.526C541.464 -370.741 499.414 -317.984 505.549 -230.953C503.101 -165.245 545.837 -110.709 582.115 -76.5203C634.517 -0.485498 708.43 67.5502 795.93 120.324ZM1388.84 -593.282C1417.78 -575.826 1444.34 -553.347 1470.02 -524.556C1541.09 -444.319 1589.88 -346.144 1603.9 -255.206C1618.22 -180.491 1613.31 -120.019 1588.88 -70.3597C1566.01 -21.7462 1521.96 24.4131 1450.26 74.8878C1364.89 153.003 1267.87 202.359 1190.77 206.87C1143.44 214.166 1098.63 214.122 1049.83 206.727C979.713 207.151 897.661 181.089 812.645 131.364C806.872 128.076 801.06 124.668 795.377 121.24C707.705 68.3616 633.657 0.198169 581.238 -75.8897C544.854 -110.15 501.898 -164.99 504.36 -231.069C498.204 -318.424 540.331 -371.29 616.813 -467.258C627.783 -481.021 639.128 -495.254 651.284 -510.78C667.692 -529.935 682.051 -548.286 694.716 -564.473C723.015 -600.647 745.362 -629.219 775.371 -649.537C807.77 -671.475 845.996 -681.384 899.319 -681.655C946.281 -688.186 1013.35 -686.307 1088.11 -676.349C1156.24 -667.271 1221.33 -652.554 1262.21 -636.981C1311.66 -629.433 1351.94 -615.538 1388.84 -593.282Z" fill="#EDE9F7"/>
<path d="M822.219 131.972C903.729 181.134 983.256 204.781 1052.2 200.352C1097.82 204.525 1140.44 202.06 1190.5 192.358C1264.47 185.312 1357.76 138.866 1440.14 68.1055C1513.28 20.5255 1558.31 -22.839 1581.91 -68.3968C1607.33 -115.404 1613.62 -175.655 1600.6 -247.505C1587.04 -340.997 1536.98 -441.094 1463.24 -522.146C1438.95 -548.678 1413.95 -569.526 1386.82 -585.886C1347.48 -609.613 1303.91 -623.671 1249.71 -630.12C1167.28 -658.513 1003.51 -680.625 907.533 -667.77C797.271 -666.746 761.097 -624.991 701.163 -555.815C689.471 -542.324 677.388 -528.377 663.569 -513.36C653.418 -501.179 643.798 -489.793 634.505 -478.774C557.48 -387.557 515.056 -337.31 519.016 -253.246C514.767 -187.974 554.431 -130.895 588.45 -94.4929C643.291 -5.74562 721.719 71.0714 815.326 127.758C817.635 129.186 819.924 130.588 822.219 131.972ZM1387.38 -586.809C1414.62 -570.378 1439.72 -549.443 1464.11 -522.814C1538.01 -441.577 1588.18 -341.244 1601.77 -247.544C1614.83 -175.483 1608.51 -115.006 1582.98 -67.8105C1559.31 -22.1082 1514.18 21.3694 1440.94 69.0082C1358.47 139.863 1264.94 186.4 1190.82 193.459C1140.7 203.177 1097.96 205.647 1052.33 201.465C983.21 205.911 903.414 182.199 821.663 132.892C819.364 131.506 817.071 130.101 814.765 128.67C720.975 71.8751 642.393 -5.09713 587.519 -93.9205C553.409 -130.399 513.557 -187.77 517.831 -253.383C513.852 -337.777 556.368 -388.125 633.536 -479.531C642.839 -490.544 652.45 -501.93 662.615 -514.124C676.444 -529.148 688.519 -543.095 700.205 -556.577C730.151 -591.141 753.803 -618.438 784.365 -637.872C817.321 -658.835 855.235 -668.397 907.312 -668.881C952.316 -674.913 1015.7 -673.59 1085.72 -665.147C1148.93 -657.526 1210.29 -644.833 1249.86 -631.193C1304.12 -624.754 1347.87 -610.64 1387.38 -586.809Z" fill="#EDE9F7"/>
<path d="M835.777 135.953C912.861 182.444 988.674 202.768 1055.02 194.73C1096.37 195.946 1138.28 191.008 1190.98 178.712C1262.14 169.175 1351.98 125.635 1431.35 62.2312C1507.11 16.9936 1551.86 -22.4375 1576.5 -65.6749C1603.34 -110.842 1610.84 -169.343 1598.8 -239.568C1585.58 -335.808 1534.03 -438.075 1457.34 -520.165C1434.21 -544.778 1410.5 -564.252 1384.89 -579.7C1343.03 -604.947 1296.09 -619.101 1237.16 -624.246C1158.43 -648.298 1006.86 -666.91 915.034 -655.206C806.759 -653.8 768.166 -613.857 704.218 -547.69C694.788 -537.941 685.04 -527.843 674.378 -517.168C666.653 -508.551 659.182 -500.285 651.998 -492.332C573.548 -405.517 530.338 -357.696 532.131 -276.253C526.148 -211.501 562.803 -151.832 594.599 -113.171C648.233 -16.8984 725.334 65.2613 817.642 124.537C823.654 128.481 829.755 132.321 835.777 135.953ZM1385.45 -580.618C1411.17 -565.104 1434.96 -545.552 1458.19 -520.842C1535.06 -438.561 1586.73 -336.055 1599.97 -239.596C1612.06 -169.153 1604.52 -110.418 1577.56 -65.0571C1552.83 -21.6781 1507.98 17.8638 1432.13 63.157C1352.67 126.631 1262.63 170.254 1191.34 179.805C1138.59 192.118 1096.59 197.064 1055.21 195.839C988.672 203.91 912.57 183.519 835.224 136.869C829.186 133.227 823.07 129.38 817.043 125.426C724.558 66.0409 647.297 -16.2913 593.63 -112.653C561.747 -151.397 524.934 -211.35 530.945 -276.422C529.137 -358.196 572.442 -406.116 651.051 -493.111C658.237 -501.066 665.705 -509.328 673.45 -517.963C684.125 -528.652 693.872 -538.739 703.295 -548.495C735.306 -581.609 760.576 -607.767 791.968 -626.377C825.787 -646.417 863.671 -655.655 914.811 -656.316C1006.72 -668.033 1158.54 -649.393 1237.27 -625.332C1296.27 -620.195 1343.4 -605.977 1385.45 -580.618Z" fill="#EDE9F7"/>
<path d="M846.842 138.42C920.591 182.9 993.573 200.357 1057.91 188.901C1101.54 187.325 1142.81 178.14 1191.39 164.826C1260.89 152.559 1345.04 112.94 1422.31 56.1204C1474.41 27.7036 1538.31 -11.499 1570.73 -63.1502C1598.99 -106.435 1607.71 -163.147 1596.67 -231.713C1584.04 -329.184 1529.71 -436.216 1451.33 -518.036C1429.3 -540.91 1406.82 -559.123 1382.62 -573.72C1337.78 -600.76 1289.09 -614.453 1224.74 -618.099C1148.43 -638.157 1009.06 -652.636 923.013 -642.246C815.831 -640.369 774.072 -601.87 704.883 -538.083C698.762 -532.448 692.441 -526.618 685.851 -520.604C681.162 -515.803 676.556 -511.107 672.062 -506.51C593.751 -426.545 546.487 -378.276 545.967 -299.001C538.259 -234.863 571.839 -172.634 601.367 -131.712C652.782 -29.5497 730.513 60.2473 820.281 121.226C829.07 127.307 838.007 133.091 846.842 138.42ZM1383.17 -574.638C1407.48 -559.977 1430.05 -541.691 1452.17 -518.731C1488.92 -480.364 1521.47 -435.169 1546.31 -388.012C1573.84 -335.756 1591.18 -283.181 1597.84 -231.737C1608.93 -162.927 1600.16 -105.981 1571.78 -62.4978C1539.23 -10.663 1475.2 28.6284 1423.05 57.0674C1345.71 113.941 1261.4 153.625 1191.8 165.912C1143.19 179.235 1101.84 188.437 1058.17 190.005C993.618 201.507 920.321 183.989 846.288 139.338C837.429 133.995 828.467 128.193 819.657 122.099C774.895 91.6958 733.363 54.5996 696.222 11.8426C658.586 -31.4781 626.334 -79.6221 600.354 -131.251C570.755 -172.256 537.037 -234.768 544.784 -299.196C545.3 -378.808 592.666 -427.18 671.14 -507.32C675.644 -511.908 680.242 -516.607 684.948 -521.427C691.564 -527.457 697.882 -533.289 703.997 -538.922C773.366 -602.876 815.239 -641.48 922.789 -643.358C1008.92 -653.755 1148.5 -639.258 1224.8 -619.194C1289.25 -615.546 1338.13 -601.801 1383.17 -574.638Z" fill="#EDE9F7"/>
<path d="M856.55 140.07C927.748 183.011 998.553 197.933 1061.31 183.225C1105.13 178.63 1147.48 165.275 1192.31 151.134C1259.44 136.185 1340.13 99.4236 1413.75 50.2619C1470.26 22.3086 1532.42 -12.6642 1565.42 -60.3181C1595.08 -101.682 1605.02 -156.589 1594.95 -223.511C1582.71 -323.609 1526.91 -432.763 1445.68 -515.516C1424.67 -536.809 1403.32 -553.877 1380.41 -567.697C1333.26 -596.133 1281.53 -609.668 1212.68 -611.579C1139.21 -627.472 1013.97 -638.315 931.352 -628.961C823.479 -626.537 777.187 -588.712 700.487 -526.043L697.704 -523.772L695.583 -521.811C613.063 -445.495 563.249 -399.432 560.246 -321.549C550.842 -258.112 581.348 -193.301 608.593 -150.092C658.457 -40.7471 734.742 54.4495 823.431 118.043C834.367 126.001 845.508 133.41 856.55 140.07ZM1380.97 -568.617C1403.98 -554.736 1425.42 -537.595 1446.51 -516.215C1527.93 -433.271 1583.86 -323.851 1596.13 -223.522C1606.23 -156.342 1596.24 -101.201 1566.43 -59.6294C1533.32 -11.7968 1471.02 23.2506 1414.46 51.2335C1340.79 100.428 1259.96 137.242 1192.76 152.209C1147.92 166.354 1105.52 179.727 1061.65 184.322C998.639 199.096 927.502 184.114 855.996 140.988C844.92 134.307 833.745 126.874 822.779 118.893C733.902 55.1703 657.465 -40.2176 607.55 -149.687C580.241 -192.987 549.618 -258.065 559.061 -321.776C562.078 -400.004 612 -446.169 694.702 -522.648L696.845 -524.627L699.653 -526.921C776.525 -589.734 822.921 -627.642 931.125 -630.072C1013.82 -639.431 1139.24 -628.582 1212.7 -612.678C1281.66 -610.775 1333.6 -597.183 1380.97 -568.617Z" fill="#EDE9F7"/>
<path d="M863.714 141.242C932.869 182.951 1001.93 195.536 1063.42 177.643C1098.74 171.358 1133.56 158.674 1170.42 145.25C1177.46 142.686 1184.62 140.078 1191.94 137.454C1257.5 119.488 1334.76 85.5229 1403.93 44.254C1461.67 18.5139 1525.18 -13.7094 1558.87 -57.7698C1589.96 -97.2318 1601.14 -150.359 1592.09 -215.681C1580.29 -318.44 1523.09 -429.737 1439.07 -513.401C1419.03 -533.265 1398.74 -549.291 1377.03 -562.385C1327.65 -592.165 1272.97 -605.427 1199.75 -605.381C1129.85 -616.908 1017.86 -624.206 938.853 -615.864C835.595 -612.898 783.024 -580.292 708.703 -526.95C628.571 -461.498 579.157 -417.629 573.572 -343.944C562.475 -281.226 589.859 -213.801 614.783 -168.273C662.924 -51.7808 737.697 48.812 825.369 115.048C837.997 124.702 850.899 133.514 863.714 141.242ZM1377.58 -563.302C1399.39 -550.15 1419.77 -534.063 1439.89 -514.118C1524.1 -430.247 1581.44 -318.686 1593.27 -215.683C1602.36 -150.092 1591.12 -96.7139 1559.86 -57.0463C1526.04 -12.8179 1462.39 19.4796 1404.59 45.2462C1335.4 86.5316 1258.05 120.538 1192.44 138.516C1185.16 141.124 1178 143.733 1170.96 146.297C1134.05 159.739 1099.19 172.433 1063.84 178.728C1034.16 187.362 1002.25 188.881 969.049 183.224C934.096 177.269 898.469 163.453 863.161 142.158C850.302 134.403 837.361 125.562 824.691 115.881C736.832 49.5072 661.908 -51.2819 613.71 -167.919C588.729 -213.546 561.253 -281.23 572.392 -344.2C578 -418.231 627.537 -462.214 707.89 -527.845C782.394 -581.328 835.092 -614.002 938.634 -616.975C1017.7 -625.327 1129.84 -618.023 1199.71 -606.487C1273.09 -606.54 1327.98 -593.22 1377.58 -563.302Z" fill="#EDE9F7"/>
<path d="M871.1 141.488C938.699 182.257 1006.43 192.733 1066.95 171.775C1096.33 164.3 1125.25 152.038 1155.88 139.056C1167.84 133.983 1180.22 128.736 1193.08 123.575C1240.97 107.792 1314.97 80.1787 1395.76 38.1813C1457.78 13.5548 1519.84 -14.7852 1554.06 -55.1932C1586.59 -92.7126 1598.98 -144.069 1590.87 -207.828C1579.43 -313.287 1520.69 -426.786 1433.73 -511.444C1414.83 -529.768 1394.93 -545.286 1374.58 -557.558C1322.96 -588.69 1265.35 -601.637 1187.77 -599.543C1127.09 -606.145 1027.71 -611.091 947.049 -603.318C850.351 -599.915 792.734 -575.219 720.221 -530.828C638.213 -473.648 595.153 -432.62 587.425 -367.094C574.712 -305.159 599.025 -235.058 621.664 -187.148C668.132 -63.5025 741.549 42.5672 828.419 111.571C842.446 122.804 856.807 132.868 871.1 141.488ZM1375.14 -558.475C1395.58 -546.148 1415.56 -530.567 1434.54 -512.167C1474.88 -472.895 1510.59 -425.37 1537.83 -374.729C1567.43 -319.682 1586.18 -261.962 1592.06 -207.823C1600.2 -143.775 1587.74 -92.1649 1555.02 -54.4313C1520.67 -13.8691 1458.48 14.5384 1396.38 39.192C1315.58 81.2016 1241.52 108.836 1193.62 124.621C1180.8 129.766 1168.43 135.011 1156.47 140.081C1125.81 153.08 1096.85 165.358 1067.43 172.842C1038.23 182.954 1006.88 185.748 974.296 181.125C939.98 176.256 905.074 163.23 870.546 142.406C856.199 133.753 841.791 123.653 827.717 112.386C740.658 43.2332 667.096 -63.0345 620.567 -186.847C597.879 -234.867 573.487 -305.213 586.256 -367.383C590.08 -399.894 603.135 -427.865 627.325 -455.369C651.629 -482.995 685.971 -508.412 719.466 -531.766C792.162 -576.269 849.913 -601.018 946.831 -604.426C1027.54 -612.208 1127.03 -607.259 1187.68 -600.649C1265.44 -602.761 1323.28 -589.751 1375.14 -558.475Z" fill="#EDE9F7"/>
<path d="M876.949 141.863C943.186 181.81 1009.74 190.249 1069.42 166.265C1094.37 157.885 1118.96 145.754 1144.99 132.912C1160.34 125.342 1176.21 117.509 1193.03 110.009C1204.8 105.399 1217.11 100.634 1229.89 95.6881C1277.44 77.2867 1331.33 56.4285 1386.23 32.3415C1459.48 6.69401 1514.95 -17.5307 1547.75 -52.4202C1581.72 -87.982 1595.33 -137.541 1588.21 -199.718C1577.37 -306.199 1515.72 -424.696 1427.3 -508.976C1409.25 -526.121 1390.29 -540.731 1370.95 -552.392C1316.48 -585.243 1257.89 -597.385 1175.04 -593C1146.64 -594.306 1047 -597.942 954.772 -589.921C868.251 -586.163 803.568 -569.892 731.475 -533.762C670.551 -499.26 612.571 -457.871 601.077 -389.304C589.745 -340.965 599.125 -277.317 628.2 -205.209C672.805 -74.5483 744.729 36.9009 830.724 108.626C845.879 121.321 861.43 132.503 876.949 141.863ZM1371.51 -553.311C1390.93 -541.599 1409.97 -526.927 1428.09 -509.707C1469.59 -470.149 1506.33 -421.871 1534.34 -370.086C1564.73 -313.889 1583.77 -254.971 1589.39 -199.7C1596.54 -137.221 1582.85 -87.3995 1548.68 -51.6271C1515.75 -16.5906 1460.15 7.69078 1386.8 33.3784C1331.92 57.4595 1278.01 78.3208 1230.45 96.7266C1217.67 101.672 1205.36 106.438 1193.62 111.035C1176.84 118.52 1160.98 126.346 1145.64 133.912C1119.57 146.77 1094.95 158.915 1069.96 167.309C1041.16 178.885 1010.3 182.917 978.259 179.289C944.499 175.469 910.228 163.185 876.395 142.78C860.814 133.384 845.203 122.159 829.994 109.419C743.817 37.5401 671.752 -74.1097 627.087 -204.955C597.938 -277.246 588.531 -341.12 599.909 -389.633C604.957 -419.749 618.777 -446.234 642.166 -470.553C662.326 -491.523 690.488 -511.923 730.799 -534.747C803.067 -570.966 867.882 -587.27 954.557 -591.038C1046.83 -599.059 1146.54 -595.417 1174.9 -594.111C1257.97 -598.514 1316.79 -586.313 1371.51 -553.311Z" fill="#EDE9F7"/>
<path d="M882.36 141.969C946.594 180.707 1014.01 187.396 1072.2 160.803C1093.72 151.716 1114.98 139.599 1137.49 126.769C1155.25 116.649 1173.61 106.18 1193.43 96.4395C1242.4 73.87 1301.41 53.1341 1363.88 31.1767L1377.34 26.4458C1440.52 7.21981 1505.29 -14.5009 1542.23 -49.7735C1577.66 -83.3878 1592.51 -131.198 1586.36 -191.874C1575.95 -301.056 1512.78 -421.83 1421.5 -507.069C1404.22 -523.157 1386.13 -536.941 1367.72 -548.042C1296.51 -590.99 1224.11 -591.898 1162.68 -587.119C1124.42 -586.201 1047.61 -583.699 962.642 -577.203C892.65 -573.479 817.569 -566.074 742.647 -537.335C667.408 -505.662 626.696 -465.844 614.54 -412.025C601.784 -363.696 608.53 -300.307 634.584 -223.605C677.319 -85.8437 747.819 31.0863 833.095 105.654C849.203 119.751 865.777 131.968 882.36 141.969ZM1368.27 -548.96C1386.76 -537.81 1404.94 -523.965 1422.28 -507.814C1513.78 -422.366 1577.1 -301.297 1587.54 -191.843C1593.72 -130.853 1578.78 -82.7698 1543.13 -48.9441C1506.02 -13.5205 1441.13 8.24701 1377.84 27.5057L1364.41 32.2298C1301.96 54.1735 1242.98 74.9043 1194.06 97.4481C1174.28 107.168 1155.94 117.627 1138.19 127.742C1115.65 140.585 1094.36 152.719 1072.8 161.823C1044.32 174.842 1013.83 180.084 982.197 177.402C948.863 174.571 915.087 162.961 881.805 142.888C865.154 132.847 848.511 120.578 832.343 106.429C746.89 31.6998 676.251 -85.438 633.448 -223.399C607.332 -300.293 600.576 -363.888 613.374 -412.396C625.607 -466.519 666.501 -506.555 742.076 -538.367C817.158 -567.17 892.346 -574.593 962.421 -578.316C1047.4 -584.809 1124.24 -587.313 1162.48 -588.231C1224.08 -593.028 1296.73 -592.109 1368.27 -548.96Z" fill="#EDE9F7"/>
<path d="M887.267 141.776C950.593 179.967 1017.21 184.745 1074.85 155.232C1093.59 145.601 1112.16 133.467 1131.82 120.624C1151.33 107.869 1171.52 94.6804 1193.66 82.7593C1236.64 59.6314 1288.85 40.9934 1368.24 20.4425C1435.58 2.96722 1499.11 -15.3607 1536.46 -47.2316C1573.35 -78.8828 1589.43 -124.933 1584.26 -184.112C1574.29 -295.979 1509.63 -418.999 1415.52 -505.17C1398.99 -520.276 1381.72 -533.293 1364.18 -543.869C1290.29 -588.43 1214.56 -587.746 1150.23 -581.199C1139.76 -580.124 1129.04 -578.99 1118.05 -577.824C1074.25 -573.19 1024.61 -567.933 970.487 -564.423C957.669 -563.593 944.412 -562.852 931.588 -562.136C871.693 -558.788 809.764 -555.328 753.849 -540.852C687.938 -523.762 643.267 -486.07 628.069 -434.719C614.098 -387.138 618.449 -322.303 641.002 -242.011C681.811 -97.2056 750.851 25.1832 835.414 102.614C852.321 118.047 869.768 131.223 887.267 141.776ZM1364.74 -544.789C1382.35 -534.166 1399.7 -521.091 1416.3 -505.926C1510.64 -419.544 1575.45 -296.219 1585.44 -184.07C1590.65 -124.559 1574.46 -78.2308 1537.32 -46.3701C1499.8 -14.3608 1436.14 4.01277 1368.68 21.5198C1289.37 42.0507 1237.23 60.6573 1194.35 83.7448C1172.24 95.6451 1152.07 108.82 1132.57 121.564C1112.89 134.424 1094.3 146.569 1075.51 156.225C1047.29 170.674 1017.12 177.102 985.835 175.331C952.87 173.457 919.52 162.48 886.712 142.695C869.134 132.093 851.614 118.86 834.638 103.369C792.531 64.8116 754.124 14.9465 720.478 -44.8491C687.103 -104.165 659.982 -170.443 639.855 -241.85C617.249 -322.335 612.897 -387.365 626.919 -435.133C642.216 -486.817 687.14 -524.751 753.414 -541.932C809.434 -556.434 871.429 -559.9 931.38 -563.252C944.2 -563.965 957.452 -564.706 970.262 -565.542C1024.36 -569.041 1073.99 -574.297 1117.78 -578.932C1128.77 -580.098 1139.5 -581.231 1149.97 -582.309C1214.52 -588.88 1290.51 -589.558 1364.74 -544.789Z" fill="#EDE9F7"/>
<path d="M895.602 131.058C958.651 169.08 1023.76 174.568 1078.94 146.509C1098.49 136.58 1117.5 124.078 1137.62 110.843C1155.54 99.0623 1174.06 86.8797 1194.36 75.6053C1203.89 70.3525 1214.24 65.1632 1225.12 60.1794C1261.2 43.6543 1303.6 29.051 1362.58 12.8246C1427.21 -5.06778 1488.21 -23.7391 1524.19 -55.3005C1559.68 -86.5754 1575.21 -131.527 1570.34 -188.905C1564.77 -255.05 1539.68 -323.487 1497.79 -386.819C1471.28 -427.642 1438.09 -466.208 1401.81 -498.363C1385.91 -512.631 1369.29 -525.022 1352.43 -535.191C1307.12 -562.513 1257.86 -575.74 1197.4 -576.813C1180.83 -577.06 1163.15 -576.398 1143.36 -574.786C1127.8 -573.615 1111.86 -572.305 1094.98 -570.924C1057.15 -567.833 1014.29 -564.319 968.558 -561.821C961.079 -561.436 953.549 -561.068 945.975 -560.7C894.468 -558.187 841.202 -555.592 791.416 -546.015C779.59 -543.745 768.236 -541.136 757.676 -538.255C694.108 -521.042 650.81 -483.953 635.754 -433.829C621.76 -387.028 625.483 -323.857 646.804 -246.079C660.701 -193.803 680.969 -141.889 707.044 -91.777C725.022 -56.7722 745.669 -23.2227 768.408 7.93545C791.266 39.1973 815.221 65.9076 843.809 91.9957C860.63 107.332 878.056 120.477 895.602 131.058ZM1352.98 -536.107C1369.92 -525.893 1386.61 -513.453 1402.57 -499.126C1438.95 -466.899 1472.21 -428.231 1498.78 -387.318C1540.78 -323.82 1565.94 -255.193 1571.53 -188.862C1576.43 -131.158 1560.79 -85.9335 1525.06 -54.4462C1488.91 -22.7402 1427.79 -4.02675 1363.03 13.8983C1304.11 30.1105 1261.77 44.6961 1225.74 61.1924C1214.89 66.1667 1204.56 71.3434 1195.04 76.5824C1174.78 87.8397 1156.28 100.011 1138.38 111.781C1118.23 125.035 1099.2 137.548 1079.6 147.504C1024.04 175.755 958.497 170.24 895.047 131.976C877.423 121.347 859.925 108.149 843.038 92.7538C814.382 66.6002 790.362 39.8215 767.454 8.48829C744.674 -22.7238 723.995 -56.3277 705.986 -91.3919C679.874 -141.578 659.572 -193.574 645.65 -245.929C624.277 -323.898 620.562 -387.259 634.606 -434.248C649.766 -484.699 693.309 -522.023 757.223 -539.332C767.813 -542.218 779.193 -544.835 791.044 -547.106C840.913 -556.703 894.218 -559.301 945.774 -561.815C953.347 -562.181 960.879 -562.547 968.353 -562.938C1014.06 -565.434 1055.08 -568.791 1094.74 -572.034C1111.62 -573.419 1127.56 -574.729 1143.13 -575.898C1162.95 -577.513 1180.66 -578.176 1197.28 -577.924C1257.99 -576.851 1307.46 -563.561 1352.98 -536.107Z" fill="#EDE9F7"/>
<path d="M904.371 120.602C967.03 158.388 1030.54 164.563 1083.21 137.99C1103.62 127.756 1123.04 114.878 1143.61 101.243C1159.88 90.4572 1176.7 79.3029 1195.1 68.7431C1204.25 63.5746 1214.22 58.4249 1224.73 53.4331C1259.57 36.875 1300.31 22.1153 1356.8 5.58261C1418.67 -12.6923 1477.06 -31.679 1511.64 -62.9009C1545.7 -93.774 1560.65 -137.574 1556.08 -193.095C1550.89 -258.473 1525.73 -324.734 1483.34 -384.716C1457.07 -423.255 1424.96 -458.886 1387.9 -490.62C1372.66 -504.031 1356.74 -515.766 1340.59 -525.503C1296.29 -552.221 1248.09 -565.792 1188.91 -568.221C1172.79 -568.801 1155.66 -568.527 1136.54 -567.384C1114.21 -566.338 1090.85 -564.977 1066.12 -563.532C1034.66 -561.695 1002.13 -559.794 966.853 -558.253L963.095 -558.108C906.841 -555.99 848.676 -553.795 794.554 -542.677C783.163 -540.349 772.183 -537.678 761.942 -534.74C700.786 -517.42 658.903 -480.988 644.013 -432.145C630.014 -386.169 633.099 -324.736 653.171 -249.556C665.866 -198.797 685.836 -149.114 714.215 -97.6528C732.237 -64.1676 752.708 -32.3293 776.789 -0.313201C798.677 28.6844 821.354 53.1924 852.613 81.626C869.347 96.8697 886.761 109.982 904.371 120.602ZM1341.15 -526.422C1357.37 -516.643 1373.35 -504.858 1388.65 -491.399C1425.8 -459.59 1457.98 -423.87 1484.31 -385.24C1526.83 -325.092 1552.06 -258.63 1557.27 -193.046C1561.86 -137.209 1546.81 -93.1373 1512.51 -62.055C1477.79 -30.696 1419.26 -11.6644 1357.27 6.64942C1300.84 23.166 1260.15 37.9068 1225.36 54.4401C1214.87 59.4212 1204.93 64.5623 1195.8 69.717C1177.43 80.2587 1160.62 91.4015 1144.37 102.178C1123.78 115.83 1104.33 128.725 1083.86 138.987C1057.96 152.053 1029.29 157.27 998.633 154.491C967.287 151.651 935.386 140.556 903.817 121.519C886.129 110.852 868.643 97.6829 851.84 82.3789C820.514 53.883 797.784 29.3222 775.848 0.252495C751.726 -31.8156 731.222 -63.7062 713.168 -97.2426C684.74 -148.79 664.736 -198.57 652.019 -249.417C631.893 -324.786 628.811 -386.409 642.867 -432.564C657.855 -481.73 699.977 -518.399 761.478 -535.81C771.75 -538.759 782.748 -541.43 794.174 -543.767C848.386 -554.903 906.604 -557.098 962.913 -559.221L966.657 -559.366C1001.92 -560.909 1034.45 -562.81 1065.9 -564.644C1090.64 -566.09 1114 -567.454 1136.34 -568.499C1155.48 -569.641 1172.64 -569.917 1188.82 -569.336C1248.23 -566.9 1296.64 -553.264 1341.15 -526.422Z" fill="#EDE9F7"/>
<path d="M913.301 110.237C974.733 147.282 1038.35 154.334 1087.85 129.585C1109.23 119.017 1129.09 105.723 1150.11 91.6501C1164.75 81.8553 1179.87 71.7306 1196.39 61.9381C1205.19 56.8479 1214.78 51.7315 1224.92 46.7332C1258.58 30.1294 1297.72 15.2111 1351.81 -1.63592C1411.01 -20.2932 1466.9 -39.5963 1500.12 -70.5144C1532.8 -101.014 1547.19 -143.723 1542.89 -197.448C1538.05 -262.149 1512.76 -326.33 1469.76 -383.061C1444.12 -418.786 1412.13 -452.575 1374.68 -483.514C1360.09 -496.078 1344.86 -507.161 1329.42 -516.47C1286.03 -542.641 1238.78 -556.609 1180.73 -560.434C1165.02 -561.347 1148.41 -561.47 1129.96 -560.803C1097.77 -560.273 1063.05 -559.009 1026.3 -557.675C1006.64 -556.956 986.31 -556.216 965.09 -555.541C909.857 -554.287 851.414 -552.076 797.359 -540.237C786.344 -537.845 775.732 -535.115 765.806 -532.121C706.965 -514.699 666.441 -478.879 651.707 -431.259C637.693 -386.05 640.169 -326.271 659.059 -253.582C670.742 -203.829 690.437 -156.259 721.055 -103.861C738.815 -72.4203 759.722 -41.3131 784.988 -8.74018C808.732 21.739 830.978 43.6539 861.382 71.2136C878.091 86.4095 895.558 99.5376 913.301 110.237ZM1329.98 -517.388C1345.48 -508.039 1360.77 -496.906 1375.41 -484.298C1412.94 -453.297 1445.01 -419.42 1470.71 -383.617C1513.85 -326.713 1539.23 -262.314 1544.08 -197.395C1548.4 -143.359 1533.91 -100.386 1501.01 -69.6795C1467.63 -38.6176 1411.63 -19.2642 1352.31 -0.572697C1298.27 16.2587 1259.18 31.1568 1225.57 47.7319C1215.45 52.7222 1205.88 57.8281 1197.1 62.9032C1180.61 72.6828 1165.49 82.7975 1150.88 92.5814C1129.83 106.677 1109.94 119.988 1088.5 130.584C1038.63 155.519 974.571 148.439 912.746 111.157C894.925 100.41 877.385 87.2247 860.609 71.9696C830.153 44.3622 807.861 22.3981 784.054 -8.15651C758.752 -40.781 737.807 -71.941 720.027 -103.425C689.348 -155.923 669.61 -203.597 657.905 -253.455C638.96 -326.326 636.493 -386.294 650.563 -431.684C665.401 -479.62 706.154 -515.672 765.329 -533.191C775.274 -536.19 785.92 -538.926 796.96 -541.324C851.12 -553.184 909.628 -555.401 964.916 -556.655C986.125 -557.331 1006.46 -558.07 1026.12 -558.785C1062.87 -560.126 1097.59 -561.387 1129.78 -561.914C1148.27 -562.584 1164.92 -562.459 1180.67 -561.547C1238.94 -557.709 1286.38 -543.677 1329.98 -517.388Z" fill="#EDE9F7"/>
<path d="M921.796 100.666C982.723 137.405 1044.66 145.061 1091.73 121.666C1114.14 110.704 1134.42 96.9343 1155.88 82.357C1168.86 73.5467 1182.28 64.4344 1196.89 55.4422C1205.31 50.4215 1214.53 45.3257 1224.31 40.2983C1256.77 23.5976 1294.28 8.46044 1345.95 -8.7843C1400.18 -27.1447 1455.8 -47.6299 1487.65 -78.2951C1518.95 -108.482 1532.82 -150.129 1528.88 -202.077C1524.49 -266.111 1499.18 -328.203 1455.7 -381.638C1430.86 -414.473 1399.07 -446.394 1361.22 -476.536C1347.34 -488.216 1332.88 -498.619 1318.22 -507.458C1275.78 -533.046 1229.52 -547.37 1172.64 -552.538C1157.37 -553.767 1141.31 -554.256 1123.51 -554.041C1075.01 -554.721 1020.93 -553.605 963.659 -552.424C913.409 -552.007 854.752 -549.865 800.661 -537.147C790.043 -534.679 779.8 -531.875 770.199 -528.807C713.712 -511.2 674.542 -475.924 659.911 -429.477C645.829 -385.003 647.61 -326.859 665.201 -256.663C675.879 -207.616 695.209 -162.126 727.876 -109.15C745.409 -79.478 766.089 -49.9771 792.949 -16.3097C817.673 14.5059 839.848 34.5575 867.926 59.9515L869.73 61.5794C886.396 76.7344 903.914 89.8824 921.796 100.666ZM1318.77 -508.377C1333.49 -499.499 1348.02 -489.058 1361.94 -477.337C1399.86 -447.136 1431.73 -415.132 1456.63 -382.228C1500.26 -328.613 1525.66 -266.292 1530.07 -202.019C1534.03 -149.769 1520.06 -107.862 1488.55 -77.4715C1456.55 -46.6646 1400.81 -26.1249 1346.47 -7.72864C1294.85 9.49834 1257.38 24.6154 1224.97 41.2888C1215.22 46.3115 1206.01 51.3931 1197.62 56.4003C1183.02 65.3747 1169.62 74.4807 1156.65 83.2875C1135.16 97.8853 1114.85 111.677 1092.38 122.667C1044.94 146.246 982.56 138.56 921.241 101.585C903.281 90.7545 885.688 77.5529 868.957 62.3367L867.155 60.71C839.035 35.2775 816.826 15.1922 792.029 -15.7112C765.126 -49.4285 744.42 -78.9719 726.861 -108.69C694.118 -161.782 674.749 -207.385 664.042 -256.549C646.406 -326.921 644.634 -385.25 658.769 -429.909C673.498 -476.662 712.898 -512.161 769.705 -529.872C779.329 -532.944 789.611 -535.755 800.251 -538.234C854.451 -550.979 913.187 -553.122 963.501 -553.537C1020.77 -554.721 1074.87 -555.835 1123.38 -555.148C1141.19 -555.37 1157.3 -554.884 1172.61 -553.651C1229.71 -548.464 1276.15 -534.075 1318.77 -508.377Z" fill="#EDE9F7"/>
<path d="M930.534 90.1914C990.939 126.615 1051.17 134.922 1095.78 112.983C1119.28 101.661 1139.92 87.4389 1161.78 72.3809C1173.08 64.5905 1184.77 56.5361 1197.46 48.4521C1205.63 43.4417 1214.23 38.5326 1223.74 33.4331C1254.96 16.7173 1290.84 1.44151 1340.07 -16.0932C1391.67 -34.7803 1444.59 -55.5676 1475.07 -85.9102C1504.94 -115.687 1518.23 -156.187 1514.56 -206.278C1510.52 -269.554 1485.11 -329.494 1441.06 -379.62C1416.73 -409.934 1385.97 -439.15 1347.02 -468.957C1333.88 -479.743 1320.2 -489.439 1306.35 -497.793C1264.81 -522.838 1219.48 -537.589 1163.69 -544.211C1148.85 -545.782 1133.32 -546.662 1116.21 -546.914C1073.89 -548.94 1026.13 -549.645 961.349 -549.198C896.359 -549.751 846.074 -544.997 803.096 -534.228C792.877 -531.705 783.004 -528.842 773.736 -525.721C719.633 -508.044 681.873 -473.433 667.4 -428.261C653.522 -385.218 654.73 -327.229 670.895 -260.569C683.313 -199.276 711.398 -150.792 734.476 -115.404C756.507 -79.9128 781.52 -48.3836 800.85 -24.8837C822.567 1.34469 842.09 18.7553 864.695 38.9093C869.022 42.7676 873.488 46.7499 878.134 50.9381C894.822 66.0809 912.451 79.2873 930.534 90.1914ZM1306.9 -498.713C1320.81 -490.323 1334.55 -480.588 1347.72 -469.775C1386.74 -439.91 1417.57 -410.619 1441.96 -380.246C1486.17 -329.932 1511.69 -269.746 1515.75 -206.221C1519.44 -155.831 1506.05 -115.073 1475.98 -85.0965C1445.36 -54.6109 1392.31 -33.7759 1340.61 -15.0455C1291.42 2.47421 1255.59 17.7267 1224.42 34.4173C1214.93 39.5057 1206.34 44.4058 1198.2 49.4036C1185.53 57.4731 1173.85 65.5215 1162.55 73.3043C1140.66 88.3876 1119.99 102.635 1096.42 113.987C1051.45 136.106 990.776 127.768 929.98 91.1089C911.819 80.1583 894.115 66.8983 877.366 51.6947C872.721 47.5097 868.256 43.5306 863.936 39.6738C841.288 19.4802 821.728 2.04172 799.947 -24.2685C780.587 -47.8049 755.537 -79.3752 733.473 -114.918C710.344 -150.389 682.19 -198.995 669.732 -260.466C653.522 -327.299 652.322 -385.474 666.261 -428.694C680.822 -474.167 718.812 -509.003 773.224 -526.777C782.516 -529.902 792.419 -532.778 802.665 -535.311C845.745 -546.096 896.118 -550.871 961.211 -550.309C1026.01 -550.762 1073.78 -550.058 1116.11 -548.027C1133.24 -547.779 1148.81 -546.894 1163.68 -545.32C1219.69 -538.67 1265.19 -523.862 1306.9 -498.713Z" fill="#EDE9F7"/>
<path d="M939.749 80.001C998.596 115.483 1058.53 124.572 1100.07 104.322C1124.72 92.6015 1145.69 77.8636 1167.89 62.2625C1177.54 55.4854 1187.51 48.4804 1198.29 41.3393C1206.07 36.4148 1214.3 31.5355 1223.44 26.4118C1253.01 9.86605 1288.28 -6.06042 1334.45 -23.7073C1383.41 -42.7765 1433.64 -63.9199 1462.76 -94.0076C1491.22 -123.426 1503.97 -162.816 1500.63 -211.082C1497 -273.626 1471.55 -331.429 1427.02 -378.243C1403.41 -405.878 1373.71 -432.478 1333.54 -461.978C1321.21 -471.835 1308.39 -480.791 1295.42 -488.616C1254.79 -513.114 1210.36 -528.278 1155.6 -536.353C1141.22 -538.25 1126.23 -539.516 1109.79 -540.209C1065.27 -543.884 1016.29 -545.851 960.003 -546.23C900.47 -547.731 848.847 -542.746 806.552 -531.401C796.743 -528.812 787.234 -525.881 778.294 -522.695C726.58 -504.886 690.209 -470.879 675.869 -426.925C661.945 -384.649 662.472 -328.399 677.392 -264.255C688.502 -204.624 716.141 -158.58 741.711 -121.409C762.503 -89.4599 786.464 -60.1408 809.256 -33.2208C828.943 -10.1373 846.017 4.7036 865.782 21.8877C872.49 27.7156 879.421 33.7455 886.932 40.4977C903.656 55.6621 921.424 68.9522 939.749 80.001ZM1295.97 -489.535C1309 -481.677 1321.87 -472.686 1334.23 -462.808C1374.46 -433.262 1404.23 -406.592 1427.88 -378.901C1472.6 -331.899 1498.17 -273.833 1501.82 -211.017C1505.17 -162.466 1492.34 -122.83 1463.68 -93.2067C1434.42 -62.9787 1384.07 -41.7832 1335.01 -22.6687C1288.89 -5.03877 1253.66 10.8672 1224.14 27.3885C1215.01 32.4999 1206.8 37.3721 1199.04 42.2801C1188.28 49.4062 1178.31 56.4095 1168.67 63.1819C1146.44 78.8102 1125.43 93.5703 1100.71 105.326C1079.26 115.78 1053.77 118.727 1024.94 114.086C997.509 109.672 967.859 98.202 939.194 80.9185C920.793 69.8232 902.949 56.4796 886.165 41.2576C878.658 34.5078 871.731 28.4854 865.031 22.6623C845.223 5.44167 828.114 -9.42896 808.363 -32.591C785.538 -59.5499 761.551 -88.9031 740.726 -120.899C715.092 -158.166 687.376 -204.345 676.233 -264.167C661.27 -328.473 660.751 -384.913 674.731 -427.362C689.165 -471.611 725.756 -505.839 777.767 -523.742C786.732 -526.937 796.273 -529.877 806.106 -532.474C848.503 -543.846 900.248 -548.85 959.877 -547.347C1016.19 -546.966 1065.21 -544.995 1109.73 -541.323C1126.18 -540.627 1141.21 -539.356 1155.64 -537.453C1210.59 -529.353 1255.18 -514.131 1295.97 -489.535Z" fill="#EDE9F7"/>
<path d="M948.807 69.7174C1006.93 104.763 1065 114.41 1104.16 95.5276C1130.03 83.4049 1150.29 68.8406 1173.75 51.9769C1181.77 46.2161 1190.05 40.2563 1198.96 34.1268C1206.39 29.2677 1214.25 24.4221 1223 19.2976C1251.34 2.71211 1284.94 -13.388 1328.75 -31.3755C1375.09 -50.8042 1422.65 -72.271 1450.43 -102.115C1477.5 -131.179 1489.69 -169.462 1486.65 -215.908C1483.41 -277.736 1457.86 -333.428 1412.79 -376.958C1383.75 -408.731 1347.83 -435.443 1319.78 -455.17C1308.32 -464.065 1296.42 -472.247 1284.39 -479.504C1244.57 -503.51 1200.94 -519.157 1147.06 -528.756C1133.11 -530.993 1118.66 -532.645 1102.88 -533.798C1056.98 -539.279 1009.62 -542.492 958.051 -543.626C902.511 -546.034 851.081 -540.976 809.298 -529.001C799.884 -526.345 790.744 -523.349 782.121 -520.103C732.78 -502.195 697.78 -468.793 683.578 -426.05C665.936 -373.594 673.647 -311.342 683.21 -268.363C693.16 -210.016 720.411 -166.309 748.372 -127.766C768.823 -97.8472 791.635 -71.1614 817.182 -41.8634C835.493 -21.0266 850.899 -8.082 868.739 6.9102C877.064 13.9045 885.674 21.141 895.345 29.8132C912.17 45.0484 930.158 58.4735 948.807 69.7174ZM1284.94 -480.417C1297.02 -473.132 1308.97 -464.924 1320.45 -456.017C1348.53 -436.267 1384.53 -409.496 1413.63 -377.651C1458.9 -333.925 1484.58 -277.959 1487.84 -215.837C1490.89 -169.116 1478.62 -130.587 1451.37 -101.326C1423.45 -71.3427 1375.78 -49.8164 1329.34 -30.3451C1285.57 -12.3781 1252.01 3.70349 1223.71 20.2614C1214.97 25.3795 1207.13 30.218 1199.72 35.0574C1190.84 41.1759 1182.55 47.1317 1174.54 52.8897C1151.04 69.7835 1130.74 84.3761 1104.79 96.5315C1065.28 115.593 1006.76 105.911 948.252 70.6349C929.524 59.3434 911.466 45.865 894.577 30.5719C884.923 21.9156 876.322 14.6902 868.005 7.70065C850.12 -7.32926 834.678 -20.3068 816.303 -41.217C790.72 -70.5531 767.886 -97.2706 747.405 -127.232C719.366 -165.884 692.03 -209.732 682.043 -268.289C672.45 -311.376 664.73 -373.822 682.435 -426.499C696.735 -469.523 731.943 -503.137 781.574 -521.148C790.223 -524.408 799.398 -527.407 808.835 -530.073C850.731 -542.08 902.296 -547.151 957.953 -544.737C1009.54 -543.607 1056.95 -540.39 1102.86 -534.907C1118.64 -533.752 1133.14 -532.099 1147.14 -529.856C1201.19 -520.223 1244.97 -504.513 1284.94 -480.417Z" fill="#EDE9F7"/>
<path d="M958.074 60.6085C1015.4 95.1732 1071.59 105.354 1108.37 87.8401C1135.51 75.3384 1155.95 60.2584 1179.61 42.7997C1186.05 38.049 1192.71 33.1386 1199.8 28.0526C1206.87 23.2739 1214.37 18.4615 1222.74 13.329C1249.85 -3.27434 1281.8 -19.5384 1323.29 -37.8599C1367.02 -57.613 1411.94 -79.379 1438.39 -108.993C1464.07 -137.695 1475.69 -174.885 1472.93 -219.518C1470.04 -280.645 1444.36 -334.245 1398.69 -374.531C1373.34 -400.299 1343.32 -422.248 1306.03 -447.283C1295.53 -455.174 1284.64 -462.529 1273.65 -469.158C1234.54 -492.734 1191.55 -508.95 1138.37 -520.191C1124.83 -522.785 1110.89 -524.826 1095.77 -526.434C1049.41 -533.802 1003.64 -538.284 955.788 -540.14C903.036 -543.469 853.192 -538.51 811.624 -525.796C802.598 -523.08 793.822 -520.029 785.525 -516.719C738.516 -498.734 704.883 -465.956 690.824 -424.411C673.143 -372.902 679.878 -312.917 688.642 -271.663C697.063 -217.494 721.171 -177.159 754.773 -133.256C774.937 -105.206 797.593 -80.0026 821.581 -53.3188L824.946 -49.577C842.304 -30.4136 856.533 -18.9297 873.012 -5.63265C882.5 2.02492 892.312 9.93924 903.693 20.114C920.7 35.4828 938.995 49.1056 958.074 60.6085ZM1274.2 -470.073C1285.23 -463.42 1296.16 -456.042 1306.67 -448.141C1344 -423.082 1374.08 -401.084 1399.48 -375.27C1445.39 -334.779 1471.21 -280.885 1474.12 -219.442C1476.89 -174.543 1465.19 -137.117 1439.34 -108.22C1412.76 -78.463 1367.73 -56.6414 1323.9 -36.8415C1282.45 -18.5384 1250.54 -2.29214 1223.47 14.2844C1215.11 19.4074 1207.63 24.2139 1200.59 28.9748C1193.5 34.0486 1186.84 38.9579 1180.41 43.707C1156.7 61.1992 1136.23 76.3065 1109 88.8506C1071.86 106.535 1015.23 96.3211 957.519 61.5259C938.365 49.9777 919.998 36.3005 902.924 20.8756C891.575 10.7283 881.78 2.82348 872.303 -4.82178C855.779 -18.1565 841.505 -29.6763 824.078 -48.9134L820.71 -52.6648C796.696 -79.3755 774.015 -104.607 753.829 -132.695C720.113 -176.736 695.919 -217.22 687.471 -271.603C678.685 -312.954 671.937 -373.141 689.684 -424.863C703.84 -466.676 737.675 -499.667 784.961 -517.756C793.279 -521.074 802.088 -524.14 811.14 -526.859C852.834 -539.616 902.826 -544.591 955.712 -541.257C1003.59 -539.397 1049.42 -534.909 1095.8 -527.539C1110.92 -525.928 1124.9 -523.879 1138.48 -521.284C1191.84 -509.999 1234.96 -493.732 1274.2 -470.073Z" fill="#EDE9F7"/>
<path d="M967.904 50.7886C1024.15 84.701 1078.26 95.2882 1112.63 79.0996C1140.99 66.2291 1161.45 50.628 1185.15 32.566C1190.09 28.8043 1195.2 24.9084 1200.59 20.8737C1207.29 16.1681 1214.42 11.3856 1222.4 6.24582C1248.23 -10.3759 1278.48 -26.8263 1317.62 -45.5182C1358.69 -65.6185 1400.91 -87.7046 1426.03 -117.119C1450.3 -145.472 1461.37 -181.545 1458.93 -224.331C1456.45 -284.713 1430.74 -336.168 1384.59 -373.143C1359.04 -397.136 1329.05 -416.918 1292.51 -440.294C1283.13 -447.09 1273.44 -453.505 1263.67 -459.397C1225.27 -482.545 1182.88 -499.362 1130.24 -512.314C1117.14 -515.247 1103.75 -517.671 1089.32 -519.717C1043.13 -528.95 999.011 -534.652 954.426 -537.157C905.007 -541.265 855.528 -536.218 815.078 -522.956C806.454 -520.176 798.046 -517.056 790.088 -513.682C745.483 -495.599 713.242 -463.422 699.301 -423.086C681.556 -372.535 687.254 -314.859 695.158 -275.377C702.577 -222.098 727.253 -182.453 762.02 -139.312C780.44 -114.924 800.912 -92.8983 822.589 -69.5794C826.15 -65.7466 829.738 -61.8868 833.354 -57.975C849.993 -40.1317 863.972 -29.349 878.77 -17.938C889.083 -9.98342 899.747 -1.76075 912.488 9.6055C929.71 25.1457 948.352 39.0011 967.904 50.7886ZM1264.23 -460.318C1274.03 -454.407 1283.75 -447.961 1293.13 -441.167C1329.7 -417.777 1359.74 -397.958 1385.34 -373.92C1431.75 -336.738 1457.62 -284.971 1460.12 -224.252C1462.57 -181.207 1451.42 -144.905 1426.99 -116.358C1401.75 -86.8062 1359.44 -64.6637 1318.26 -44.5126C1279.16 -25.8404 1248.94 -9.40934 1223.15 7.18954C1215.18 12.3222 1208.06 17.0961 1201.39 21.789C1196.01 25.8083 1190.91 29.7046 1185.97 33.4663C1162.22 51.5651 1141.71 67.1938 1113.25 80.1135C1078.53 96.4664 1023.98 85.8473 967.349 51.706C947.722 39.8732 929.005 25.9641 911.722 10.3683C899.02 -0.960599 888.376 -9.17135 878.086 -17.1096C863.24 -28.5576 849.217 -39.3748 832.502 -57.3019C828.881 -61.214 825.298 -65.0734 821.736 -68.9043C800.035 -92.2509 779.533 -114.303 761.089 -138.724C726.203 -182.016 701.435 -221.821 693.991 -275.33C686.063 -314.908 680.349 -372.78 698.164 -423.542C712.198 -464.141 744.634 -496.52 789.501 -514.711C797.48 -518.098 805.921 -521.226 814.577 -524.011C855.165 -537.322 904.809 -542.388 954.377 -538.268C999.007 -535.76 1043.18 -530.05 1089.4 -520.812C1103.82 -518.766 1117.25 -516.339 1130.4 -513.392C1183.19 -500.405 1225.71 -483.54 1264.23 -460.318Z" fill="#EDE9F7"/>
<path d="M977.72 40.9613C1033.58 74.6375 1084.24 85.3053 1116.71 70.2259C1146.23 57.0443 1165.61 41.7274 1190.15 22.3334C1193.72 19.5096 1197.4 16.6025 1201.24 13.5961C1207.59 8.95088 1214.36 4.20258 1221.93 -0.928541C1246.46 -17.5462 1275.04 -34.1665 1311.87 -53.2308C1348.62 -72.7408 1389.83 -96.0103 1413.63 -125.251C1436.5 -153.251 1447.01 -188.214 1444.87 -229.164C1442.77 -288.807 1416.98 -338.138 1370.29 -371.839C1346.22 -392.535 1317.43 -409.981 1286.94 -428.445L1278.67 -433.455C1270.65 -439.044 1262.39 -444.407 1254.08 -449.417C1216.2 -472.248 1174.12 -489.814 1121.64 -504.691C1108.96 -507.98 1096.1 -510.793 1082.36 -513.272C1035.99 -524.577 994.714 -531.33 952.435 -534.523C905.347 -539.461 857.544 -534.494 817.813 -520.542C809.583 -517.701 801.539 -514.525 793.906 -511.079C751.683 -492.92 720.825 -461.365 707.009 -422.225C689.206 -372.627 693.909 -317.247 700.995 -279.525C708.203 -221.184 738.393 -181.444 768.694 -145.74C785.734 -124.306 804.497 -104.88 824.354 -84.3172C829.94 -78.5363 835.594 -72.6816 841.301 -66.6903C857.44 -49.8793 870.722 -40.1406 884.783 -29.8275C895.719 -21.8109 907.025 -13.5173 920.913 -1.16225C938.208 14.4179 957.853 28.9841 977.72 40.9613ZM1254.63 -450.335C1262.97 -445.309 1271.26 -439.931 1279.27 -434.344L1287.49 -429.361C1318.03 -410.861 1346.88 -393.39 1370.99 -372.652C1417.97 -338.749 1443.94 -289.089 1446.06 -229.074C1448.21 -187.883 1437.63 -152.702 1414.61 -124.511C1390.69 -95.134 1349.38 -71.8019 1312.54 -52.2407C1275.74 -33.1913 1247.2 -16.5922 1222.7 0.00375127C1215.14 5.12379 1208.38 9.86576 1202.05 14.4964C1198.22 17.4902 1194.55 20.3984 1190.98 23.2203C1166.38 42.6546 1146.96 58.0093 1117.33 71.2393C1084.5 86.4845 1033.41 75.786 977.166 41.8784C957.223 29.8559 937.504 15.2341 920.147 -0.399689C906.315 -12.7079 895.032 -20.982 884.12 -28.9844C870.008 -39.3304 856.683 -49.1056 840.459 -66.0031C834.748 -71.9969 829.1 -77.8479 823.519 -83.6232C803.633 -104.214 784.849 -123.664 767.792 -145.122C737.376 -180.963 707.062 -220.869 699.819 -279.495C692.717 -317.311 688.002 -372.881 705.879 -422.687C719.781 -462.078 750.83 -493.831 793.299 -512.103C800.958 -515.552 809.028 -518.748 817.286 -521.59C857.171 -535.6 905.16 -540.588 952.407 -535.638C994.741 -532.433 1036.08 -525.675 1082.48 -514.362C1096.22 -511.874 1109.11 -509.061 1121.84 -505.757C1174.46 -490.841 1216.65 -473.233 1254.63 -450.335Z" fill="#EDE9F7"/>
<path d="M987.714 32.2883C1042.04 65.0348 1090.44 75.8998 1120.5 62.0953C1151.06 48.6342 1169.22 33.6536 1194.35 12.916C1196.71 10.966 1199.13 8.9666 1201.64 6.91224C1207.65 2.3069 1214.05 -2.41914 1221.21 -7.54588C1244.42 -24.1713 1271.33 -41.0093 1305.89 -60.5436C1348.36 -85.1672 1380.8 -106.947 1401.06 -133.168C1422.55 -160.886 1432.54 -194.775 1430.75 -233.904C1429.1 -292.855 1403.3 -340.08 1356.15 -370.477C1345.81 -378.548 1333.94 -386.558 1318.74 -395.718C1307.74 -402.352 1296.38 -408.769 1284.34 -415.561C1278.02 -419.135 1271.6 -422.761 1265.11 -426.489C1258.84 -430.678 1252.4 -434.762 1245.96 -438.646C1207.93 -461.57 1167.08 -479.505 1113.49 -496.803C1101.39 -500.399 1088.73 -503.671 1075.86 -506.529C1030.22 -519.75 990.554 -527.666 951.008 -531.447C906.112 -537.145 860.005 -532.189 821.151 -517.501C813.293 -514.582 805.617 -511.321 798.339 -507.814C758.497 -489.528 728.999 -458.527 715.258 -420.517C697.333 -371.789 700.976 -318.671 707.186 -282.694C713.328 -225.102 743.02 -187.613 775.538 -151.155C791.392 -132.183 808.725 -114.948 827.079 -96.6949C834.299 -89.5127 841.773 -82.0826 849.266 -74.425C865.026 -58.4595 877.752 -49.624 891.221 -40.2734C902.619 -32.3598 914.401 -24.1829 929.237 -10.997C946.94 4.93001 967.157 19.8961 987.714 32.2883ZM1319.3 -396.636C1334.54 -387.447 1346.46 -379.407 1356.8 -371.337C1404.27 -340.729 1430.28 -293.166 1431.94 -233.814C1433.73 -194.452 1423.68 -160.345 1402.05 -132.45C1381.69 -106.101 1349.17 -84.26 1306.59 -59.5724C1272.06 -40.0547 1245.18 -23.2354 1222 -6.63204C1214.85 -1.51082 1208.46 3.20933 1202.46 7.79885C1199.98 9.84016 1197.55 11.8411 1195.19 13.7923C1170 34.5789 1151.79 49.5963 1121.11 63.1112C1090.69 77.0804 1041.86 66.1819 987.159 33.2067C966.527 20.7692 946.235 5.74755 928.473 -10.2338C913.701 -23.3598 901.955 -31.5152 890.593 -39.4042C877.067 -48.7946 864.291 -57.663 848.438 -73.7249C840.945 -81.3774 833.479 -88.8027 826.262 -95.9806C807.884 -114.256 790.528 -131.516 774.649 -150.518C742.003 -187.117 712.179 -224.779 706.005 -282.68C699.786 -318.746 696.133 -372.053 714.13 -420.984C727.957 -459.23 757.636 -490.43 797.71 -508.825C805.01 -512.343 812.715 -515.614 820.606 -518.543C859.628 -533.297 905.939 -538.272 951.015 -532.551C990.622 -528.764 1030.36 -520.838 1076.04 -507.604C1088.9 -504.751 1101.59 -501.471 1113.73 -497.862C1167.44 -480.522 1208.39 -462.545 1246.51 -439.563C1252.98 -435.666 1259.43 -431.573 1265.68 -427.396C1272.13 -423.695 1278.54 -420.068 1284.87 -416.5C1296.91 -409.701 1308.28 -403.281 1319.3 -396.636Z" fill="#EDE9F7"/>
<path d="M1342.08 -368.304C1336.96 -371.889 1331.53 -375.4 1325.43 -379.076C1311.31 -387.588 1296.04 -395.493 1279.88 -403.864C1270.64 -408.65 1261.09 -413.596 1251.41 -418.837C1247.58 -421.27 1243.71 -423.67 1239.84 -426C1201.72 -448.976 1160.1 -468.245 1104.9 -488.478C1093.19 -492.451 1081.07 -496.134 1068.88 -499.414C1023.42 -514.866 986.438 -523.756 948.936 -528.238C906.045 -534.779 861.604 -529.952 823.775 -514.652C816.304 -511.687 808.997 -508.375 802.051 -504.816C764.072 -486.263 736.712 -456.732 722.93 -419.399C704.969 -371.656 707.677 -320.883 713.107 -286.696C718.344 -229.855 747.615 -194.54 782.464 -157.462C797.384 -140.552 813.589 -125.16 830.736 -108.865C839.461 -100.576 848.477 -92.0051 857.564 -83.0012C873.108 -67.7163 885.427 -59.6652 898.463 -51.1441C910.235 -43.4522 922.407 -35.4977 938.113 -21.5843C956.404 -5.17728 977.394 10.3226 998.815 23.235C1051.44 54.9577 1097.5 65.9995 1125.17 53.5347C1156.57 39.9901 1173.33 25.5311 1198.7 3.64391L1202.84 0.0730557C1208.54 -4.48338 1214.57 -9.1644 1221.29 -14.251C1243.41 -30.9822 1267.88 -47.4514 1300.66 -67.6581C1339.97 -92.5351 1370.07 -114.455 1389.15 -140.558C1409.21 -167.895 1418.61 -200.64 1417.08 -237.887C1415.78 -294.463 1391.12 -338.809 1345.76 -366.152C1344.54 -366.882 1343.32 -367.604 1342.08 -368.304ZM1325.98 -379.995C1332.11 -376.303 1337.56 -372.771 1342.66 -369.206C1343.85 -368.526 1345.09 -367.805 1346.31 -367.069C1392.07 -339.483 1416.96 -294.782 1418.27 -237.79C1419.8 -200.324 1410.35 -167.374 1390.15 -139.857C1370.98 -113.631 1340.81 -91.6495 1301.4 -66.7071C1268.64 -46.5161 1244.19 -30.0616 1222.1 -13.3532C1215.38 -8.27019 1209.36 -3.59583 1203.69 0.945624L1199.56 4.50623C1174.12 26.4522 1157.32 40.9511 1125.78 54.5531C1097.75 67.1821 1051.26 56.1012 998.261 24.1519C976.765 11.1942 955.703 -4.35695 937.348 -20.8239C921.722 -34.6647 909.595 -42.5898 897.868 -50.2542C884.766 -58.8179 872.395 -66.9031 856.751 -82.2861C847.675 -91.2808 838.662 -99.844 829.939 -108.132C812.768 -124.45 796.546 -139.866 781.602 -156.8C747.898 -192.663 717.191 -229.596 711.929 -286.699C706.487 -320.97 703.769 -371.932 721.8 -419.878C735.67 -457.438 763.201 -487.153 801.396 -505.812C808.362 -509.383 815.701 -512.709 823.197 -515.688C861.216 -531.059 905.882 -535.91 948.968 -529.34C986.541 -524.851 1023.61 -515.941 1069.12 -500.468C1081.29 -497.197 1093.44 -493.505 1105.2 -489.515C1160.51 -469.246 1202.2 -449.941 1240.4 -426.917C1244.27 -424.582 1248.16 -422.173 1251.96 -419.763C1261.58 -414.55 1271.12 -409.607 1280.36 -404.827C1296.54 -396.446 1311.82 -388.526 1325.98 -379.995Z" fill="#EDE9F7"/>
<path d="M1009.41 14.9255C1059.94 45.3824 1103.44 56.4204 1128.76 45.2107C1160.77 31.6427 1176.02 17.7973 1201.29 -5.1354L1203.02 -6.70632C1208.41 -11.2457 1214.08 -15.898 1220.35 -20.9413C1240.99 -37.5195 1263.84 -54.1713 1294.46 -74.9329C1325.75 -96.7199 1357.33 -120.691 1376.32 -148.325C1395 -175.362 1403.85 -207.012 1402.63 -242.41C1401.77 -295.019 1379.65 -335.886 1338.64 -360.603C1335.07 -362.758 1331.3 -364.817 1327.45 -366.719C1326.66 -367.211 1325.91 -367.662 1325.16 -368.116C1309.63 -377.48 1292.1 -385.646 1273.54 -394.286C1261.81 -399.749 1249.68 -405.395 1237.27 -411.706C1187.96 -441.342 1138.19 -463.126 1096.01 -480.538C1084.67 -484.897 1073.1 -488.977 1061.62 -492.644C1031.65 -504.412 991.531 -518.747 946.669 -525.241C906.286 -532.447 862.394 -527.551 826.223 -511.819C819.14 -508.787 812.2 -505.41 805.597 -501.778C770.045 -483.181 744.024 -454.223 730.325 -418.038C712.263 -371.181 713.968 -322.698 718.581 -290.278C722.848 -234.166 752.875 -199.576 788.733 -163.294C802.819 -148.16 818.031 -134.365 834.135 -119.76C844.183 -110.648 854.571 -101.226 865.067 -91.1174C880.451 -76.415 892.431 -69.0779 905.113 -61.3093C917.156 -53.9341 929.618 -46.3041 946.075 -31.7611C964.839 -14.962 987.329 1.61738 1009.41 14.9255ZM1339.19 -361.52C1380.61 -336.558 1402.95 -295.331 1403.82 -242.303C1405.05 -206.705 1396.14 -174.852 1377.34 -147.642C1358.26 -119.889 1326.61 -95.8516 1295.23 -74.0066C1264.63 -53.2584 1241.8 -36.6184 1221.18 -20.0572C1214.91 -15.0226 1209.25 -10.3751 1203.88 -5.84952L1202.17 -4.29202C1176.82 18.7129 1161.53 32.5994 1129.36 46.2296C1103.68 57.5996 1059.76 46.525 1008.85 15.8428C986.701 2.49051 964.136 -14.1425 945.313 -30.9961C928.954 -45.4556 916.548 -53.0522 904.552 -60.3988C891.801 -68.206 879.763 -75.5808 864.263 -90.3907C853.783 -100.486 843.407 -109.899 833.364 -119.003C817.24 -133.629 802.009 -147.44 787.891 -162.604C751.872 -199.05 721.695 -233.825 717.394 -290.297C712.769 -322.803 711.062 -371.467 729.206 -418.518C742.983 -454.921 769.166 -484.053 804.915 -502.767C811.542 -506.402 818.513 -509.798 825.631 -512.839C861.994 -528.666 906.136 -533.584 946.733 -526.338C991.708 -519.83 1031.92 -505.462 1061.93 -493.679C1073.38 -490.02 1084.98 -485.935 1096.36 -481.555C1138.61 -464.121 1188.44 -442.307 1237.78 -412.65C1250.12 -406.375 1262.24 -400.731 1273.96 -395.274C1293.45 -386.198 1311.81 -377.646 1327.97 -367.66C1331.79 -365.769 1335.59 -363.695 1339.19 -361.52Z" fill="#EDE9F7"/>
<path d="M1021.76 6.62155C1049.99 23.6419 1102.07 50.1509 1133.55 36.4772C1165.89 23.0167 1179.53 9.94304 1204.3 -13.7934C1209.5 -18.4355 1214.8 -23.0541 1220.58 -28.0014C1244.87 -48.8002 1270.12 -68.0778 1289.41 -82.5571C1317.95 -104.544 1346.82 -128.714 1364.62 -156.394C1381.9 -183.138 1390.2 -213.687 1389.29 -247.202C1388.82 -296.205 1368.95 -333.927 1331.82 -356.301C1326.26 -359.654 1320.25 -362.711 1313.94 -365.377C1299.8 -372.948 1283.98 -379.415 1267.23 -386.262C1253.37 -391.922 1239.05 -397.78 1224.24 -404.806C1182.35 -428.435 1139.59 -449.085 1088.27 -472.828C1077.28 -477.599 1066.25 -482.068 1055.52 -486.102C1024.42 -500.08 987.074 -515.305 945.574 -522.474C906.986 -530.445 864.824 -525.614 829.884 -509.234C823.19 -506.143 816.614 -502.702 810.342 -499.001C777.256 -480.381 752.575 -452.018 738.961 -416.964C720.781 -370.997 721.497 -324.832 725.3 -294.195C728.646 -238.7 758.096 -206.21 796.244 -169.5C809.62 -155.904 823.974 -143.508 839.177 -130.38C850.419 -120.674 862.042 -110.637 873.809 -99.6285C885.758 -88.5206 895.422 -82.1751 903.296 -77.4295C906.61 -75.4316 909.807 -73.6045 913.199 -71.6678C916.552 -69.7549 920.031 -67.7709 923.587 -65.6276C931.336 -60.957 941.941 -54.0877 955.268 -42.3353C974.985 -24.7222 998.599 -7.33641 1021.76 6.62155ZM1332.38 -357.22C1369.91 -334.598 1390 -296.519 1390.48 -247.087C1391.38 -213.856 1382.8 -182.266 1365.66 -155.738C1347.78 -127.936 1318.84 -103.704 1290.22 -81.6582C1270.94 -67.1868 1245.71 -47.923 1221.43 -27.1373C1215.66 -22.1979 1210.37 -17.5833 1205.25 -13.0229C1180.35 10.8534 1166.66 23.9729 1134.14 37.5019C1102.17 51.3895 1049.66 24.6903 1021.2 7.5388C997.971 -6.46327 974.285 -23.9035 954.506 -41.5702C941.266 -53.2483 930.735 -60.0704 923.034 -64.7123C919.49 -66.8485 916.025 -68.821 912.67 -70.7351C909.427 -72.5876 906.068 -74.504 902.74 -76.5103C894.803 -81.294 885.072 -87.6883 873.023 -98.886C861.278 -109.878 849.663 -119.909 838.426 -129.608C823.208 -142.745 808.828 -155.162 795.432 -168.787C757.09 -205.675 727.488 -238.352 724.112 -294.234C720.299 -324.953 719.588 -371.301 737.839 -417.456C751.532 -452.712 776.358 -481.249 809.639 -499.972C815.928 -503.688 822.532 -507.14 829.259 -510.245C864.419 -526.729 906.851 -531.586 945.672 -523.558C987.306 -516.376 1024.75 -501.106 1055.88 -487.116C1066.6 -483.09 1077.64 -478.606 1088.67 -473.824C1140.04 -450.059 1182.83 -429.392 1224.72 -405.769C1239.45 -398.779 1253.75 -392.932 1267.59 -387.276C1284.37 -380.414 1300.23 -373.936 1314.37 -366.358C1320.68 -363.689 1326.76 -360.608 1332.38 -357.22Z" fill="#EDE9F7"/>
<path d="M1033.95 -0.727871C1079.82 26.9243 1116.68 37.2279 1137.73 28.2861C1170.16 15.0512 1182.6 2.41632 1205.17 -20.5144C1210.11 -25.1905 1215.05 -29.7819 1220.28 -34.5679C1241.69 -54.1799 1263.5 -72.6681 1283.88 -89.726C1308.46 -110.816 1335.85 -136.155 1352.53 -164.083C1368.2 -190.198 1376.17 -220.491 1375.57 -251.694C1375.43 -298.117 1358.03 -332.095 1323.86 -352.692C1316.63 -357.051 1308.58 -360.805 1299.95 -363.85C1287.58 -369.439 1273.95 -374.179 1259.51 -379.198C1243.81 -384.656 1227.58 -390.302 1210.63 -397.768C1185.42 -410.976 1160.35 -423.787 1133.81 -437.348C1116.23 -446.331 1098.05 -455.623 1079.79 -465.055C1069.08 -470.29 1058.6 -475.157 1048.64 -479.525C1016.77 -495.779 982.021 -511.88 943.593 -519.708C906.681 -528.455 866.206 -523.693 832.538 -506.655C826.213 -503.503 820.001 -499.996 814.069 -496.225C783.426 -477.606 760.059 -449.802 746.504 -415.827C728.188 -370.677 727.921 -326.798 730.928 -297.933C733.38 -242.969 762.251 -212.477 802.764 -175.401C815.509 -163.146 829.141 -151.968 843.569 -140.138C855.922 -130.006 868.7 -119.529 881.654 -107.754C889.684 -100.495 897.435 -94.7 906.031 -89.5194C910.984 -86.5342 915.648 -84.0683 920.584 -81.4607C925.52 -78.8551 930.632 -76.1548 936.058 -72.8844C945.568 -67.1526 954.338 -60.6656 963.648 -52.468C984.328 -34.0482 1009.95 -15.1911 1033.95 -0.727871ZM1324.42 -353.612C1359.01 -332.761 1376.62 -298.428 1376.75 -251.569C1377.36 -220.196 1369.35 -189.72 1353.58 -163.453C1336.83 -135.404 1309.38 -110.005 1284.73 -88.8544C1264.36 -71.8052 1242.56 -53.3257 1221.16 -33.7271C1215.93 -28.9438 1211 -24.3533 1206.08 -19.6986C1183.42 3.31995 1170.94 16.0039 1138.31 29.3141C1116.91 38.4112 1079.64 28.0678 1033.39 0.190176C1009.32 -14.3148 983.627 -33.2288 962.888 -51.703C953.642 -59.8374 944.943 -66.2795 935.504 -71.9684C930.116 -75.2161 925.022 -77.9056 920.098 -80.5061C915.146 -83.1212 910.461 -85.5939 905.474 -88.5994C896.798 -93.8289 888.985 -99.6742 880.883 -106.998C867.953 -118.749 855.191 -129.216 842.852 -139.333C828.397 -151.185 814.748 -162.379 801.972 -174.658C761.247 -211.932 732.215 -242.605 729.741 -297.989C726.729 -326.935 726.995 -370.992 745.391 -416.322C759.021 -450.493 782.516 -478.451 813.335 -497.178C819.287 -500.96 825.529 -504.485 831.878 -507.658C865.789 -524.808 906.555 -529.6 943.731 -520.799C982.297 -512.934 1017.15 -496.788 1049.07 -480.512C1059.01 -476.154 1069.51 -471.276 1080.25 -466.027C1098.52 -456.585 1116.71 -447.294 1134.28 -438.315C1160.82 -424.75 1185.89 -411.942 1211.07 -398.747C1227.93 -391.324 1244.13 -385.69 1259.8 -380.237C1274.27 -375.208 1287.93 -370.458 1300.3 -364.868C1308.97 -361.816 1317.1 -358.022 1324.42 -353.612Z" fill="#EDE9F7"/>
</svg>
